<svg xmlns="http://www.w3.org/2000/svg" version="1.1" width="3300" height="2000"><g id="Notes"><style>
    text {
      font-family: monospace;
      text-anchor: middle;
    }
    text.emphasis {
      font-weight:bold;
    }
    text.lanchor {
      text-anchor: start;
    }
  </style><rect height="2200" id="artboard" fill="white" width="3300" x="0" y="0"/><line id="" style="fill:none;stroke:black;stroke-width:0.5;" x1="263" x2="3036" y1="292" y2="292"/><text class="lanchor emphasis" transform="matrix(1 0 0 1 263 322)">Weight/Scale Variations</text><text transform="matrix(1 0 0 1 559.711 322)">Ultralight</text><text transform="matrix(1 0 0 1 856.422 322)">Thin</text><text transform="matrix(1 0 0 1 1153.13 322)">Light</text><text transform="matrix(1 0 0 1 1449.84 322)">Regular</text><text transform="matrix(1 0 0 1 1746.56 322)">Medium</text><text transform="matrix(1 0 0 1 2043.27 322)">Semibold</text><text transform="matrix(1 0 0 1 2339.98 322)">Bold</text><text transform="matrix(1 0 0 1 2636.69 322)">Heavy</text><text transform="matrix(1 0 0 1 2933.4 322)">Black</text><text id="template-version" style="text-anchor: end;" transform="matrix(1 0 0 1 3036 1933)">Template v.1.0</text><text class="lanchor" transform="matrix(1 0 0 1 263 726)">Small</text><text class="lanchor" transform="matrix(1 0 0 1 263 1156)">Medium</text><text class="lanchor" transform="matrix(1 0 0 1 263 1586)">Large</text></g><g id="Guides"><g id="H-reference" style="fill:#27AAE1;stroke:none;" transform="matrix(1 0 0 1 339 696)"><path d="M 54.9316 0 L 57.666 0 L 30.5664 -70.459 L 28.0762 -70.459 L 0.976562 0 L 3.66211 0 L 12.9395 -24.4629 L 45.7031 -24.4629 Z M 29.1992 -67.0898 L 29.4434 -67.0898 L 44.8242 -26.709 L 13.8184 -26.709 Z"/></g><line id="Baseline-S" style="fill:none;stroke:#27AAE1;opacity:1;stroke-width:0.577;" x1="263" x2="3036" y1="696" y2="696"/><line id="Capline-S" style="fill:none;stroke:#27AAE1;opacity:1;stroke-width:0.577;" x1="263" x2="3036" y1="625.541" y2="625.541"/><g id="H-reference" style="fill:#27AAE1;stroke:none;" transform="matrix(1 0 0 1 339 1126)"><path d="M 54.9316 0 L 57.666 0 L 30.5664 -70.459 L 28.0762 -70.459 L 0.976562 0 L 3.66211 0 L 12.9395 -24.4629 L 45.7031 -24.4629 Z M 29.1992 -67.0898 L 29.4434 -67.0898 L 44.8242 -26.709 L 13.8184 -26.709 Z"/></g><line id="Baseline-M" style="fill:none;stroke:#27AAE1;opacity:1;stroke-width:0.577;" x1="263" x2="3036" y1="1126" y2="1126"/><line id="Capline-M" style="fill:none;stroke:#27AAE1;opacity:1;stroke-width:0.577;" x1="263" x2="3036" y1="1055.54" y2="1055.54"/><g id="H-reference" style="fill:#27AAE1;stroke:none;" transform="matrix(1 0 0 1 339 1556)"><path d="M 54.9316 0 L 57.666 0 L 30.5664 -70.459 L 28.0762 -70.459 L 0.976562 0 L 3.66211 0 L 12.9395 -24.4629 L 45.7031 -24.4629 Z M 29.1992 -67.0898 L 29.4434 -67.0898 L 44.8242 -26.709 L 13.8184 -26.709 Z"/></g><line id="Baseline-L" style="fill:none;stroke:#27AAE1;opacity:1;stroke-width:0.577;" x1="263" x2="3036" y1="1556" y2="1556"/><line id="Capline-L" style="fill:none;stroke:#27AAE1;opacity:1;stroke-width:0.577;" x1="263" x2="3036" y1="1485.54" y2="1485.54"/><rect height="119.336" id="left-margin" style="fill:darkred;stroke:none;opacity:0.4;" width="12.4512" x="1394.06" y="1030.79"/><rect height="119.336" id="right-margin" style="fill:darkgreen;stroke:none;opacity:0.4;" width="12.4512" x="1502.5112" y="1030.79"/><rect x="1406.5112" y="1045" width="96" height="96" fill="none" stroke="blue" stroke-dasharray="5"/><rect x="1394.06" y="1030.79" width="120.9024" height="119.336" fill="none" stroke="blue"/></g><g id="Symbols"><g id="Bold-L" transform="matrix(1 0 0 1 2266 1556)"><path d="M71.595 -2.98 H83.205 V-45.389 H71.595 V-2.98 Z M77.4 -53.129 Q80.597 -53.129 82.626 -55.261 Q84.656 -57.394 84.656 -60.546 Q84.656 -63.63 82.626 -65.716 Q80.597 -67.802 77.4 -67.802 Q74.203 -67.802 72.173 -65.694 Q70.144 -63.585 70.144 -60.467 Q70.144 -57.349 72.173 -55.239 Q74.203 -53.129 77.4 -53.129 Z M77.39 33.301 Q53.068 27.204 37.418 5.5 Q21.769 -16.204 21.769 -42.111 V-83.357 L77.4 -104.084 L133.192 -83.352 V-42.164 Q133.192 -16.236 117.452 5.484 Q101.712 27.204 77.39 33.301 Z M77.4 17.821 Q95.138 10.888 106.506 -5.399 Q117.874 -21.685 117.874 -42.116 V-72.64 L77.4 -87.959 L36.926 -72.562 V-42.191 Q36.926 -21.685 48.294 -5.399 Q59.663 10.888 77.4 17.821 Z"/></g><g id="Semibold-L" transform="matrix(1 0 0 1 1970.27 1556)"><path d="M72.016 -3.26 H82.784 V-45.248 H72.016 V-3.26 Z M77.4 -54.25 Q80.22 -54.25 82.053 -56.141 Q83.885 -58.032 83.885 -60.827 Q83.885 -63.583 82.053 -65.447 Q80.22 -67.312 77.4 -67.312 Q74.58 -67.312 72.747 -65.434 Q70.915 -63.557 70.915 -60.782 Q70.915 -58.007 72.747 -56.128 Q74.58 -54.25 77.4 -54.25 Z M77.394 31.478 Q53.832 25.579 38.677 4.372 Q23.521 -16.834 23.521 -42.134 V-82.133 L77.4 -102.261 L131.37 -82.13 V-42.164 Q131.37 -16.852 116.163 4.363 Q100.957 25.579 77.394 31.478 Z M77.4 18.382 Q95.488 11.799 106.996 -4.803 Q118.505 -21.405 118.505 -42.137 V-73.131 L77.4 -88.66 L36.295 -73.087 V-42.179 Q36.295 -21.405 47.804 -4.803 Q59.312 11.799 77.4 18.382 Z"/></g><g id="Medium-L" transform="matrix(1 0 0 1 1674.31 1556)"><path d="M72.331 -3.471 H82.469 V-45.143 H72.331 V-3.471 Z M77.4 -55.092 Q79.937 -55.092 81.622 -56.801 Q83.307 -58.51 83.307 -61.037 Q83.307 -63.547 81.622 -65.246 Q79.937 -66.944 77.4 -66.944 Q74.863 -66.944 73.178 -65.24 Q71.493 -63.536 71.493 -61.018 Q71.493 -58.5 73.178 -56.796 Q74.863 -55.092 77.4 -55.092 Z M77.398 30.111 Q54.405 24.359 39.62 3.526 Q24.836 -17.307 24.836 -42.151 V-81.215 L77.4 -100.894 L130.003 -81.213 V-42.164 Q130.003 -17.315 115.196 3.522 Q100.39 24.359 77.398 30.111 Z M77.4 18.803 Q95.751 12.482 107.364 -4.356 Q118.978 -21.194 118.978 -42.152 V-73.499 L77.4 -89.186 L35.822 -73.48 V-42.17 Q35.822 -21.194 47.436 -4.356 Q59.049 12.482 77.4 18.803 Z"/></g><g id="Regular-L" transform="matrix(1 0 0 1 1378.56 1556)"><path d="M72.562 -3.625 H82.237 V-45.066 H72.562 V-3.625 Z M77.4 -55.709 Q79.73 -55.709 81.306 -57.285 Q82.883 -58.861 82.883 -61.191 Q82.883 -63.521 81.306 -65.098 Q79.73 -66.674 77.4 -66.674 Q75.07 -66.674 73.494 -65.098 Q71.918 -63.521 71.918 -61.191 Q71.918 -58.861 73.494 -57.285 Q75.07 -55.709 77.4 -55.709 Z M77.4 29.109 Q54.825 23.465 40.312 2.906 Q25.8 -17.654 25.8 -42.164 V-80.541 L77.4 -99.891 L129 -80.541 V-42.164 Q129 -17.654 114.487 2.906 Q99.975 23.465 77.4 29.109 Z M77.4 19.111 Q95.944 12.984 107.634 -4.028 Q119.325 -21.04 119.325 -42.164 V-73.769 L77.4 -89.571 L35.475 -73.769 V-42.164 Q35.475 -21.04 47.166 -4.028 Q58.856 12.984 77.4 19.111 Z"/></g><g id="Light-L" transform="matrix(1 0 0 1 1082.77 1556)"><path d="M73.741 -5.92 H81.059 V-45.5 H73.741 V-5.92 Z M77.4 -55.399 Q79.389 -55.399 80.64 -56.68 Q81.89 -57.962 81.89 -59.889 Q81.89 -61.878 80.64 -63.159 Q79.389 -64.441 77.4 -64.441 Q75.411 -64.441 74.16 -63.159 Q72.91 -61.878 72.91 -59.889 Q72.91 -57.962 74.16 -56.68 Q75.411 -55.399 77.4 -55.399 Z M77.4 25.822 Q56.376 20.054 42.7 0.797 Q29.025 -18.46 29.025 -41.854 V-78.246 L77.4 -96.356 L125.775 -78.246 V-41.854 Q125.775 -18.46 112.1 0.797 Q98.424 20.054 77.4 25.822 Z M77.4 18.181 Q95.448 12.302 106.952 -4.431 Q118.457 -21.164 118.457 -41.854 V-73.149 L77.4 -88.579 L36.343 -73.149 V-41.854 Q36.343 -21.164 47.848 -4.431 Q59.352 12.302 77.4 18.181 Z"/></g><g id="Thin-L" transform="matrix(1 0 0 1 787.282 1556)"><path d="M74.919 -8.214 H79.881 V-45.935 H74.919 V-8.214 Z M77.4 -55.089 Q79.048 -55.089 79.973 -56.076 Q80.898 -57.063 80.898 -58.586 Q80.898 -60.234 79.973 -61.221 Q79.048 -62.208 77.4 -62.208 Q75.752 -62.208 74.827 -61.221 Q73.902 -60.234 73.902 -58.586 Q73.902 -57.063 74.827 -56.076 Q75.752 -55.089 77.4 -55.089 Z M77.4 22.535 Q57.926 16.643 45.088 -1.312 Q32.25 -19.266 32.25 -41.544 V-75.952 L77.4 -92.821 L122.55 -75.952 V-41.544 Q122.55 -19.266 109.712 -1.312 Q96.874 16.643 77.4 22.535 Z M77.4 17.251 Q94.951 11.619 106.27 -4.834 Q117.588 -21.288 117.588 -41.544 V-72.528 L77.4 -87.587 L37.212 -72.528 V-41.544 Q37.212 -21.288 48.53 -4.834 Q59.849 11.619 77.4 17.251 Z"/></g><g id="Ultralight-L" transform="matrix(1 0 0 1 491.205 1556)"><path d="M75.626 -9.591 H79.174 V-46.195 H75.626 V-9.591 Z M77.4 -54.902 Q78.843 -54.902 79.573 -55.713 Q80.303 -56.523 80.303 -57.805 Q80.303 -59.248 79.573 -60.058 Q78.843 -60.869 77.4 -60.869 Q75.957 -60.869 75.227 -60.058 Q74.498 -59.248 74.498 -57.805 Q74.498 -56.523 75.227 -55.713 Q75.957 -54.902 77.4 -54.902 Z M77.4 20.563 Q58.856 14.596 46.521 -2.577 Q34.185 -19.75 34.185 -41.357 V-74.575 L77.4 -90.7 L120.615 -74.575 V-41.357 Q120.615 -19.75 108.279 -2.577 Q95.944 14.596 77.4 20.563 Z M77.4 16.693 Q94.654 11.21 105.861 -5.076 Q117.068 -21.362 117.068 -41.357 V-72.156 L77.4 -86.991 L37.733 -72.156 V-41.357 Q37.733 -21.362 48.939 -5.076 Q60.146 11.21 77.4 16.693 Z"/></g><g id="Bold-M" transform="matrix(1 0 0 1 2281.8 1126)"><path d="M54 -9.48 H66 V-40.48 H54 V-9.48 Z M60 -47.605 Q62.922 -47.605 64.898 -49.581 Q66.875 -51.558 66.875 -54.48 Q66.875 -57.402 64.898 -59.378 Q62.922 -61.355 60 -61.355 Q57.078 -61.355 55.102 -59.378 Q53.125 -57.402 53.125 -54.48 Q53.125 -51.558 55.102 -49.581 Q57.078 -47.605 60 -47.605 Z M60 19.145 Q40.779 14.419 28.265 -2.393 Q15.75 -19.205 15.75 -39.73 V-73.163 L60 -89.605 L104.25 -73.163 V-39.73 Q104.25 -19.205 91.736 -2.393 Q79.221 14.419 60 19.145 Z M60 2.895 Q72.125 -1.98 80.312 -13.605 Q88.5 -25.23 88.5 -39.672 V-62.23 L60 -72.855 L31.5 -62.169 V-39.73 Q31.5 -25.23 39.688 -13.605 Q47.875 -1.98 60 2.895 Z"/></g><g id="Semibold-M" transform="matrix(1 0 0 1 1985.97 1126)"><path d="M54.435 -9.806 H65.565 V-40.371 H54.435 V-9.806 Z M60 -48.746 Q62.575 -48.746 64.318 -50.488 Q66.06 -52.231 66.06 -54.806 Q66.06 -57.381 64.318 -59.124 Q62.575 -60.866 60 -60.866 Q57.425 -60.866 55.682 -59.124 Q53.94 -57.381 53.94 -54.806 Q53.94 -52.231 55.682 -50.488 Q57.425 -48.746 60 -48.746 Z M60 17.243 Q41.581 12.669 29.59 -3.599 Q17.598 -19.868 17.598 -39.73 V-71.888 L60 -87.703 L102.402 -71.888 V-39.73 Q102.402 -19.868 90.41 -3.599 Q78.418 12.669 60 17.243 Z M60 3.493 Q72.505 -1.056 80.829 -13.007 Q89.152 -24.958 89.152 -39.697 V-62.719 L60 -73.616 L30.848 -62.685 V-39.73 Q30.848 -24.958 39.171 -13.007 Q47.495 -1.056 60 3.493 Z"/></g><g id="Medium-M" transform="matrix(1 0 0 1 1689.91 1126)"><path d="M54.761 -10.051 H65.239 V-40.29 H54.761 V-10.051 Z M60 -49.602 Q62.316 -49.602 63.882 -51.169 Q65.448 -52.735 65.448 -55.051 Q65.448 -57.366 63.882 -58.933 Q62.316 -60.499 60 -60.499 Q57.684 -60.499 56.118 -58.933 Q54.552 -57.366 54.552 -55.051 Q54.552 -52.735 56.118 -51.169 Q57.684 -49.602 60 -49.602 Z M60 15.816 Q42.184 11.357 30.584 -4.504 Q18.984 -20.365 18.984 -39.73 V-70.931 L60 -86.276 L101.016 -70.931 V-39.73 Q101.016 -20.365 89.416 -4.504 Q77.817 11.357 60 15.816 Z M60 3.941 Q72.791 -0.363 81.216 -12.559 Q89.641 -24.754 89.641 -39.716 V-63.086 L60 -74.186 L30.359 -63.071 V-39.73 Q30.359 -24.754 38.784 -12.559 Q47.209 -0.363 60 3.941 Z"/></g><g id="Regular-M" transform="matrix(1 0 0 1 1394.06 1126)"><path d="M55 -10.23 H65 V-40.23 H55 V-10.23 Z M60 -50.23 Q62.125 -50.23 63.562 -51.667 Q65 -53.105 65 -55.23 Q65 -57.355 63.562 -58.792 Q62.125 -60.23 60 -60.23 Q57.875 -60.23 56.438 -58.792 Q55 -57.355 55 -55.23 Q55 -53.105 56.438 -51.667 Q57.875 -50.23 60 -50.23 Z M60 14.77 Q42.625 10.395 31.312 -5.167 Q20 -20.73 20 -39.73 V-70.23 L60 -85.23 L100 -70.23 V-39.73 Q100 -20.73 88.688 -5.167 Q77.375 10.395 60 14.77 Z M60 4.27 Q73 0.145 81.5 -12.23 Q90 -24.605 90 -39.73 V-63.355 L60 -74.605 L30 -63.355 V-39.73 Q30 -24.605 38.5 -12.23 Q47 0.145 60 4.27 Z"/></g><g id="Light-M" transform="matrix(1 0 0 1 1098.18 1126)"><path d="M56.25 -12.153 H63.75 V-41.288 H56.25 V-12.153 Z M60 -50.23 Q61.716 -50.23 62.877 -51.391 Q64.038 -52.552 64.038 -54.268 Q64.038 -55.985 62.877 -57.146 Q61.716 -58.307 60 -58.307 Q58.284 -58.307 57.123 -57.146 Q55.962 -55.985 55.962 -54.268 Q55.962 -52.552 57.123 -51.391 Q58.284 -50.23 60 -50.23 Z M60 12.174 Q43.779 7.751 33.139 -6.922 Q22.5 -21.595 22.5 -39.73 V-68.499 L60 -82.537 L97.5 -68.499 V-39.73 Q97.5 -21.595 86.861 -6.922 Q76.221 7.751 60 12.174 Z M60 4.27 Q73 0.145 81.5 -12.23 Q90 -24.605 90 -39.73 V-63.355 L60 -74.557 L30 -63.355 V-39.73 Q30 -24.605 38.5 -12.23 Q47 0.145 60 4.27 Z"/></g><g id="Thin-M" transform="matrix(1 0 0 1 802.565 1126)"><path d="M57.5 -14.076 H62.5 V-42.345 H57.5 V-14.076 Z M60 -50.23 Q61.308 -50.23 62.192 -51.115 Q63.077 -51.999 63.077 -53.307 Q63.077 -54.615 62.192 -55.499 Q61.308 -56.384 60 -56.384 Q58.692 -56.384 57.808 -55.499 Q56.923 -54.615 56.923 -53.307 Q56.923 -51.999 57.808 -51.115 Q58.692 -50.23 60 -50.23 Z M60 9.578 Q44.933 5.107 34.966 -8.677 Q25 -22.461 25 -39.73 V-66.768 L60 -79.845 L95 -66.768 V-39.73 Q95 -22.461 85.034 -8.677 Q75.067 5.107 60 9.578 Z M60 4.27 Q73 0.145 81.5 -12.23 Q90 -24.605 90 -39.73 V-63.355 L60 -74.509 L30 -63.355 V-39.73 Q30 -24.605 38.5 -12.23 Q47 0.145 60 4.27 Z"/></g><g id="Ultralight-M" transform="matrix(1 0 0 1 506.415 1126)"><path d="M58.25 -15.23 H61.75 V-42.98 H58.25 V-15.23 Z M60 -50.23 Q61.062 -50.23 61.781 -50.949 Q62.5 -51.667 62.5 -52.73 Q62.5 -53.792 61.781 -54.511 Q61.062 -55.23 60 -55.23 Q58.938 -55.23 58.219 -54.511 Q57.5 -53.792 57.5 -52.73 Q57.5 -51.667 58.219 -50.949 Q58.938 -50.23 60 -50.23 Z M60 8.02 Q45.625 3.52 36.062 -9.73 Q26.5 -22.98 26.5 -39.73 V-65.73 L60 -78.23 L93.5 -65.73 V-39.73 Q93.5 -22.98 83.938 -9.73 Q74.375 3.52 60 8.02 Z M60 4.27 Q73 0.145 81.5 -12.23 Q90 -24.605 90 -39.73 V-63.355 L60 -74.48 L30 -63.355 V-39.73 Q30 -24.605 38.5 -12.23 Q47 0.145 60 4.27 Z"/></g><g id="Bold-S" transform="matrix(1 0 0 1 2294.23 696)"><path d="M43.001 -15.702 H51.68 V-40.161 H43.001 V-15.702 Z M47.319 -44.994 Q49.448 -44.994 50.909 -46.434 Q52.37 -47.874 52.37 -50.003 Q52.37 -52.132 50.93 -53.593 Q49.49 -55.054 47.361 -55.054 Q45.232 -55.054 43.771 -53.614 Q42.31 -52.173 42.31 -50.045 Q42.31 -47.916 43.75 -46.455 Q45.19 -44.994 47.319 -44.994 Z M47.34 6.094 Q32.569 2.562 22.892 -10.243 Q13.216 -23.048 13.216 -38.682 V-63.581 L47.34 -76.554 L81.464 -63.581 V-38.682 Q81.464 -23.048 71.788 -10.243 Q62.111 2.562 47.34 6.094 Z M47.34 -5.84 Q56.907 -9.612 63.367 -18.562 Q69.827 -27.513 69.827 -38.636 V-55.547 L47.34 -64.127 L24.854 -55.499 V-38.682 Q24.854 -27.513 31.313 -18.562 Q37.773 -9.612 47.34 -5.84 Z"/></g><g id="Semibold-S" transform="matrix(1 0 0 1 1998.1 696)"><path d="M43.344 -15.96 H51.336 V-40.075 H43.344 V-15.96 Z M47.319 -45.894 Q49.175 -45.894 50.451 -47.15 Q51.727 -48.405 51.727 -50.26 Q51.727 -52.116 50.472 -53.392 Q49.216 -54.668 47.361 -54.668 Q45.505 -54.668 44.229 -53.413 Q42.953 -52.157 42.953 -50.302 Q42.953 -48.446 44.208 -47.17 Q45.464 -45.894 47.319 -45.894 Z M47.34 4.593 Q33.202 1.182 23.938 -11.195 Q14.674 -23.571 14.674 -38.682 V-62.575 L47.34 -75.053 L80.006 -62.575 V-38.682 Q80.006 -23.571 70.742 -11.195 Q61.478 1.182 47.34 4.593 Z M47.34 -5.368 Q57.207 -8.883 63.774 -18.091 Q70.341 -27.298 70.341 -38.656 V-55.933 L47.34 -64.727 L24.339 -55.906 V-38.682 Q24.339 -27.298 30.906 -18.091 Q37.473 -8.883 47.34 -5.368 Z"/></g><g id="Medium-S" transform="matrix(1 0 0 1 1701.85 696)"><path d="M43.601 -16.152 H51.079 V-40.011 H43.601 V-16.152 Z M47.319 -46.57 Q48.97 -46.57 50.107 -47.686 Q51.244 -48.803 51.244 -50.453 Q51.244 -52.104 50.128 -53.241 Q49.011 -54.378 47.361 -54.378 Q45.71 -54.378 44.573 -53.262 Q43.436 -52.145 43.436 -50.495 Q43.436 -48.844 44.552 -47.707 Q45.669 -46.57 47.319 -46.57 Z M47.34 3.467 Q33.677 0.147 24.722 -11.909 Q15.767 -23.964 15.767 -38.682 V-61.82 L47.34 -73.927 L78.913 -61.82 V-38.682 Q78.913 -23.964 69.958 -11.909 Q61.003 0.147 47.34 3.467 Z M47.34 -5.014 Q57.432 -8.336 64.079 -17.737 Q70.727 -27.137 70.727 -38.671 V-56.222 L47.34 -65.178 L23.953 -56.211 V-38.682 Q23.953 -27.137 30.601 -17.737 Q37.248 -8.336 47.34 -5.014 Z"/></g><g id="Regular-S" transform="matrix(1 0 0 1 1405.73 696)"><path d="M43.79 -16.294 H50.891 V-39.964 H43.79 V-16.294 Z M47.319 -47.065 Q48.819 -47.065 49.855 -48.08 Q50.891 -49.095 50.891 -50.595 Q50.891 -52.095 49.876 -53.13 Q48.861 -54.166 47.361 -54.166 Q45.861 -54.166 44.825 -53.151 Q43.79 -52.136 43.79 -50.636 Q43.79 -49.136 44.804 -48.101 Q45.819 -47.065 47.319 -47.065 Z M47.34 2.642 Q34.026 -0.613 25.297 -12.432 Q16.569 -24.252 16.569 -38.682 V-61.267 L47.34 -73.102 L78.111 -61.267 V-38.682 Q78.111 -24.252 69.383 -12.432 Q60.654 -0.613 47.34 2.642 Z M47.34 -4.755 Q57.597 -7.936 64.303 -17.477 Q71.01 -27.019 71.01 -38.682 V-56.434 L47.34 -65.508 L23.67 -56.434 V-38.682 Q23.67 -27.019 30.377 -17.477 Q37.083 -7.936 47.34 -4.755 Z"/></g><g id="Light-S" transform="matrix(1 0 0 1 1109.75 696)"><path d="M44.776 -17.811 H49.904 V-40.799 H44.776 V-17.811 Z M47.319 -47.065 Q48.497 -47.065 49.314 -47.862 Q50.132 -48.658 50.132 -49.836 Q50.132 -51.014 49.335 -51.831 Q48.538 -52.649 47.361 -52.649 Q46.183 -52.649 45.366 -51.852 Q44.548 -51.055 44.548 -49.878 Q44.548 -48.7 45.345 -47.882 Q46.142 -47.065 47.319 -47.065 Z M47.34 0.593 Q34.936 -2.699 26.739 -13.817 Q18.542 -24.934 18.542 -38.682 V-59.901 L47.34 -70.978 L76.138 -59.901 V-38.682 Q76.138 -24.934 67.941 -13.817 Q59.744 -2.699 47.34 0.593 Z M47.34 -4.755 Q57.597 -7.936 64.303 -17.477 Q71.01 -27.019 71.01 -38.682 V-56.434 L47.34 -65.47 L23.67 -56.434 V-38.682 Q23.67 -27.019 30.377 -17.477 Q37.083 -7.936 47.34 -4.755 Z"/></g><g id="Thin-S" transform="matrix(1 0 0 1 814.015 696)"><path d="M45.762 -19.329 H48.918 V-41.633 H45.762 V-19.329 Z M47.319 -47.065 Q48.175 -47.065 48.774 -47.644 Q49.373 -48.222 49.373 -49.077 Q49.373 -49.933 48.795 -50.532 Q48.216 -51.131 47.361 -51.131 Q46.505 -51.131 45.906 -50.553 Q45.307 -49.974 45.307 -49.119 Q45.307 -48.264 45.885 -47.664 Q46.464 -47.065 47.319 -47.065 Z M47.34 -1.455 Q35.846 -4.785 28.18 -15.201 Q20.514 -25.617 20.514 -38.682 V-58.536 L47.34 -68.854 L74.166 -58.536 V-38.682 Q74.166 -25.617 66.5 -15.201 Q58.834 -4.785 47.34 -1.455 Z M47.34 -4.755 Q57.597 -7.936 64.303 -17.477 Q71.01 -27.019 71.01 -38.682 V-56.434 L47.34 -65.432 L23.67 -56.434 V-38.682 Q23.67 -27.019 30.377 -17.477 Q37.083 -7.936 47.34 -4.755 Z"/></g><g id="Ultralight-S" transform="matrix(1 0 0 1 517.792 696)"><path d="M46.354 -20.239 H48.326 V-42.134 H46.354 V-20.239 Z M47.319 -47.065 Q47.981 -47.065 48.45 -47.513 Q48.918 -47.96 48.918 -48.622 Q48.918 -49.284 48.47 -49.753 Q48.023 -50.221 47.361 -50.221 Q46.699 -50.221 46.23 -49.773 Q45.762 -49.326 45.762 -48.664 Q45.762 -48.002 46.21 -47.533 Q46.657 -47.065 47.319 -47.065 Z M47.34 -2.684 Q36.393 -6.037 29.045 -16.032 Q21.698 -26.027 21.698 -38.682 V-57.716 L47.34 -67.579 L72.983 -57.716 V-38.682 Q72.983 -26.027 65.635 -16.032 Q58.287 -6.037 47.34 -2.684 Z M47.34 -4.755 Q57.597 -7.936 64.303 -17.477 Q71.01 -27.019 71.01 -38.682 V-56.434 L47.34 -65.409 L23.67 -56.434 V-38.682 Q23.67 -27.019 30.377 -17.477 Q37.083 -7.936 47.34 -4.755 Z"/></g></g></svg>