<svg xmlns="http://www.w3.org/2000/svg" version="1.1" width="3300" height="2000"><g id="Notes"><style>
    text {
      font-family: monospace;
      text-anchor: middle;
    }
    text.emphasis {
      font-weight:bold;
    }
    text.lanchor {
      text-anchor: start;
    }
  </style><rect height="2200" id="artboard" fill="white" width="3300" x="0" y="0"/><line id="" style="fill:none;stroke:black;stroke-width:0.5;" x1="263" x2="3036" y1="292" y2="292"/><text class="lanchor emphasis" transform="matrix(1 0 0 1 263 322)">Weight/Scale Variations</text><text transform="matrix(1 0 0 1 559.711 322)">Ultralight</text><text transform="matrix(1 0 0 1 856.422 322)">Thin</text><text transform="matrix(1 0 0 1 1153.13 322)">Light</text><text transform="matrix(1 0 0 1 1449.84 322)">Regular</text><text transform="matrix(1 0 0 1 1746.56 322)">Medium</text><text transform="matrix(1 0 0 1 2043.27 322)">Semibold</text><text transform="matrix(1 0 0 1 2339.98 322)">Bold</text><text transform="matrix(1 0 0 1 2636.69 322)">Heavy</text><text transform="matrix(1 0 0 1 2933.4 322)">Black</text><text id="template-version" style="text-anchor: end;" transform="matrix(1 0 0 1 3036 1933)">Template v.1.0</text><text class="lanchor" transform="matrix(1 0 0 1 263 726)">Small</text><text class="lanchor" transform="matrix(1 0 0 1 263 1156)">Medium</text><text class="lanchor" transform="matrix(1 0 0 1 263 1586)">Large</text></g><g id="Guides"><g id="H-reference" style="fill:#27AAE1;stroke:none;" transform="matrix(1 0 0 1 339 696)"><path d="M 54.9316 0 L 57.666 0 L 30.5664 -70.459 L 28.0762 -70.459 L 0.976562 0 L 3.66211 0 L 12.9395 -24.4629 L 45.7031 -24.4629 Z M 29.1992 -67.0898 L 29.4434 -67.0898 L 44.8242 -26.709 L 13.8184 -26.709 Z"/></g><line id="Baseline-S" style="fill:none;stroke:#27AAE1;opacity:1;stroke-width:0.577;" x1="263" x2="3036" y1="696" y2="696"/><line id="Capline-S" style="fill:none;stroke:#27AAE1;opacity:1;stroke-width:0.577;" x1="263" x2="3036" y1="625.541" y2="625.541"/><g id="H-reference" style="fill:#27AAE1;stroke:none;" transform="matrix(1 0 0 1 339 1126)"><path d="M 54.9316 0 L 57.666 0 L 30.5664 -70.459 L 28.0762 -70.459 L 0.976562 0 L 3.66211 0 L 12.9395 -24.4629 L 45.7031 -24.4629 Z M 29.1992 -67.0898 L 29.4434 -67.0898 L 44.8242 -26.709 L 13.8184 -26.709 Z"/></g><line id="Baseline-M" style="fill:none;stroke:#27AAE1;opacity:1;stroke-width:0.577;" x1="263" x2="3036" y1="1126" y2="1126"/><line id="Capline-M" style="fill:none;stroke:#27AAE1;opacity:1;stroke-width:0.577;" x1="263" x2="3036" y1="1055.54" y2="1055.54"/><g id="H-reference" style="fill:#27AAE1;stroke:none;" transform="matrix(1 0 0 1 339 1556)"><path d="M 54.9316 0 L 57.666 0 L 30.5664 -70.459 L 28.0762 -70.459 L 0.976562 0 L 3.66211 0 L 12.9395 -24.4629 L 45.7031 -24.4629 Z M 29.1992 -67.0898 L 29.4434 -67.0898 L 44.8242 -26.709 L 13.8184 -26.709 Z"/></g><line id="Baseline-L" style="fill:none;stroke:#27AAE1;opacity:1;stroke-width:0.577;" x1="263" x2="3036" y1="1556" y2="1556"/><line id="Capline-L" style="fill:none;stroke:#27AAE1;opacity:1;stroke-width:0.577;" x1="263" x2="3036" y1="1485.54" y2="1485.54"/><rect height="119.336" id="left-margin" style="fill:darkred;stroke:none;opacity:0.4;" width="12.4512" x="1394.06" y="1030.79"/><rect height="119.336" id="right-margin" style="fill:darkgreen;stroke:none;opacity:0.4;" width="12.4512" x="1502.5112" y="1030.79"/><rect x="1406.5112" y="1045" width="96" height="96" fill="none" stroke="blue" stroke-dasharray="5"/><rect x="1394.06" y="1030.79" width="120.9024" height="119.336" fill="none" stroke="blue"/></g><g id="Symbols"><g id="Bold-L" transform="matrix(1 0 0 1 2266 1556)"><path d="M128.516 26.851 Q108.828 26.851 88.68 17.499 Q68.531 8.146 51.358 -9.027 Q34.185 -26.2 24.752 -46.43 Q15.319 -66.661 15.319 -86.185 Q15.319 -90.93 18.544 -94.201 Q21.769 -97.472 26.445 -97.472 H49.02 Q54.019 -97.472 57.163 -94.812 Q60.308 -92.151 61.436 -87.152 L65.779 -69.473 Q66.435 -65.222 65.548 -61.997 Q64.661 -58.772 62.044 -56.479 L45.311 -41.196 Q48.859 -35.391 52.89 -30.231 Q56.921 -25.071 62.081 -20.234 Q67.403 -14.59 72.804 -10.397 Q78.206 -6.205 83.85 -3.302 L99.975 -19.589 Q102.716 -22.491 106.127 -23.459 Q109.537 -24.426 113.359 -23.459 L129.322 -19.75 Q134.321 -18.299 136.982 -15.067 Q139.643 -11.835 139.643 -7.011 V15.725 Q139.643 20.493 136.36 23.672 Q133.077 26.851 128.516 26.851 Z M37.733 -54.58  50.633 -66.674 Q50.633 -66.674 50.633 -66.674 Q50.633 -66.674 50.633 -66.674 L47.085 -82.154 Q47.085 -82.154 47.085 -82.154 Q47.085 -82.154 47.085 -82.154 H30.799 Q30.799 -82.154 30.799 -82.154 Q30.799 -82.154 30.799 -82.154 Q30.96 -76.349 32.485 -69.666 Q34.01 -62.984 37.733 -54.58 Z M97.718 4.599 Q103.523 7.34 110.537 9.114 Q117.551 10.888 124.324 11.371 Q124.324 11.371 124.324 11.371 Q124.324 11.371 124.324 11.371 V-5.209 Q124.324 -5.209 124.324 -5.209 Q124.324 -5.209 124.324 -5.209 L110.134 -8.301 Q110.134 -8.301 110.134 -8.301 Q110.134 -8.301 110.134 -8.301 L97.718 4.599 Z"/></g><g id="Semibold-L" transform="matrix(1 0 0 1 1970.27 1556)"><path d="M128.376 25.099 Q109.115 25.099 89.279 15.886 Q69.443 6.674 52.515 -10.254 Q35.587 -27.182 26.329 -47.064 Q17.071 -66.947 17.071 -86.115 Q17.071 -90.149 19.796 -92.899 Q22.52 -95.65 26.515 -95.65 H49.09 Q52.897 -95.65 55.376 -93.445 Q57.854 -91.24 58.772 -87.363 L63.115 -68.562 Q63.631 -65.152 62.954 -62.523 Q62.278 -59.894 60.222 -58.021 L43.769 -42.318 Q47.597 -35.952 51.908 -30.372 Q56.22 -24.791 61.591 -19.673 Q67.192 -13.819 73.12 -9.241 Q79.047 -4.663 85.392 -1.34 L101.167 -17.416 Q103.417 -19.827 106.267 -20.655 Q109.117 -21.482 112.167 -20.795 L129.533 -16.876 Q133.41 -15.775 135.615 -13.104 Q137.82 -10.432 137.82 -6.661 V15.655 Q137.82 19.702 135.063 22.4 Q132.306 25.099 128.376 25.099 Z M37.382 -53.739  50.352 -66.323 Q50.352 -66.323 50.352 -66.323 Q50.352 -66.323 50.352 -66.323 L46.734 -82.785 Q46.734 -82.785 46.734 -82.785 Q46.734 -82.785 46.734 -82.785 H30.028 Q30.028 -82.785 30.028 -82.785 Q30.028 -82.785 30.028 -82.785 Q30.259 -76.559 31.927 -69.522 Q33.595 -62.485 37.382 -53.739 Z M97.157 5.16 Q103.312 8.041 110.642 9.885 Q117.972 11.729 124.955 12.142 Q124.955 12.142 124.955 12.142 Q124.955 12.142 124.955 12.142 V-4.731 Q124.955 -4.731 124.955 -4.731 Q124.955 -4.731 124.955 -4.731 L109.713 -7.951 Q109.713 -7.951 109.713 -7.951 Q109.713 -7.951 109.713 -7.951 L97.157 5.16 Z"/></g><g id="Medium-L" transform="matrix(1 0 0 1 1674.31 1556)"><path d="M128.271 23.784 Q109.331 23.784 89.729 14.677 Q70.126 5.57 53.382 -11.174 Q36.639 -27.918 27.512 -47.54 Q18.386 -67.161 18.386 -86.062 Q18.386 -89.563 20.735 -91.923 Q23.083 -94.283 26.568 -94.283 H49.143 Q52.056 -94.283 54.035 -92.419 Q56.013 -90.556 56.774 -87.521 L61.116 -67.878 Q61.527 -65.1 61.009 -62.918 Q60.49 -60.736 58.854 -59.178 L42.612 -43.159 Q46.65 -36.373 51.172 -30.477 Q55.694 -24.581 61.222 -19.252 Q67.034 -13.24 73.356 -8.373 Q79.678 -3.506 86.549 0.133 L102.061 -15.785 Q103.943 -17.829 106.372 -18.551 Q108.801 -19.273 111.273 -18.797 L129.691 -14.72 Q132.726 -13.882 134.589 -11.631 Q136.453 -9.381 136.453 -6.398 V15.602 Q136.453 19.109 134.09 21.446 Q131.728 23.784 128.271 23.784 Z M37.119 -53.108  50.142 -66.06 Q50.142 -66.06 50.142 -66.06 Q50.142 -66.06 50.142 -66.06 L46.472 -83.258 Q46.472 -83.258 46.472 -83.258 Q46.472 -83.258 46.472 -83.258 H29.449 Q29.449 -83.258 29.449 -83.258 Q29.449 -83.258 29.449 -83.258 Q29.733 -76.717 31.509 -69.414 Q33.284 -62.111 37.119 -53.108 Z M96.736 5.58 Q103.154 8.567 110.721 10.463 Q118.287 12.36 125.428 12.721 Q125.428 12.721 125.428 12.721 Q125.428 12.721 125.428 12.721 V-4.372 Q125.428 -4.372 125.428 -4.372 Q125.428 -4.372 125.428 -4.372 L109.398 -7.688 Q109.398 -7.688 109.398 -7.688 Q109.398 -7.688 109.398 -7.688 L96.736 5.58 Z"/></g><g id="Regular-L" transform="matrix(1 0 0 1 1378.56 1556)"><path d="M128.194 22.82 Q109.489 22.82 90.058 13.79 Q70.627 4.76 54.019 -11.849 Q37.41 -28.457 28.38 -47.888 Q19.35 -67.319 19.35 -86.024 Q19.35 -89.134 21.423 -91.207 Q23.496 -93.28 26.606 -93.28 H49.181 Q51.439 -93.28 53.051 -91.667 Q54.664 -90.055 55.309 -87.636 L59.651 -67.377 Q59.985 -65.061 59.582 -63.207 Q59.179 -61.352 57.852 -60.026 L41.764 -43.776 Q45.956 -36.681 50.633 -30.554 Q55.309 -24.426 60.953 -18.944 Q66.919 -12.816 73.53 -7.737 Q80.141 -2.657 87.398 1.213 L102.716 -14.59 Q104.329 -16.364 106.449 -17.009 Q108.57 -17.654 110.618 -17.331 L129.806 -13.139 Q132.225 -12.494 133.838 -10.552 Q135.45 -8.61 135.45 -6.205 V15.564 Q135.45 18.674 133.377 20.747 Q131.304 22.82 128.194 22.82 Z M36.926 -52.645  49.988 -65.867 Q49.988 -65.867 49.988 -65.867 Q49.988 -65.867 49.988 -65.867 L46.279 -83.605 Q46.279 -83.605 46.279 -83.605 Q46.279 -83.605 46.279 -83.605 H29.025 Q29.025 -83.605 29.025 -83.605 Q29.025 -83.605 29.025 -83.605 Q29.348 -76.832 31.202 -69.334 Q33.056 -61.836 36.926 -52.645 Z M96.428 5.889 Q103.039 8.953 110.779 10.888 Q118.519 12.823 125.775 13.145 Q125.775 13.145 125.775 13.145 Q125.775 13.145 125.775 13.145 V-4.109 Q125.775 -4.109 125.775 -4.109 Q125.775 -4.109 125.775 -4.109 L109.166 -7.495 Q109.166 -7.495 109.166 -7.495 Q109.166 -7.495 109.166 -7.495 L96.428 5.889 Z"/></g><g id="Light-L" transform="matrix(1 0 0 1 1082.77 1556)"><path d="M125.031 19.595 Q107.876 19.595 89.655 10.937 Q71.434 2.279 55.662 -13.523 Q39.891 -29.326 31.233 -47.516 Q22.575 -65.706 22.575 -82.861 Q22.575 -85.944 24.613 -87.999 Q26.651 -90.055 29.707 -90.055 H48.11 Q50.633 -90.055 52.369 -88.411 Q54.106 -86.768 54.813 -84.163 L58.659 -66.88 Q58.993 -64.441 58.497 -62.494 Q58 -60.546 56.611 -59.22 L41.392 -44.396 Q45.708 -36.991 50.508 -30.678 Q55.309 -24.364 60.89 -18.82 Q66.919 -12.63 73.716 -7.52 Q80.513 -2.409 88.266 1.771 L102.902 -13.287 Q104.515 -15.061 106.512 -15.675 Q108.509 -16.289 110.68 -15.967 L126.333 -12.519 Q128.938 -11.936 130.581 -9.896 Q132.225 -7.856 132.225 -5.275 V12.463 Q132.225 15.519 130.169 17.557 Q128.114 19.595 125.031 19.595 Z M37.733 -51.032  51.042 -63.945 Q51.29 -64.193 51.383 -64.627 Q51.476 -65.061 51.414 -65.433 L47.891 -81.744 Q47.829 -82.241 47.488 -82.489 Q47.147 -82.737 46.651 -82.737 H30.762 Q30.389 -82.737 30.141 -82.489 Q29.893 -82.241 29.893 -81.868 Q30.03 -75.158 31.977 -67.567 Q33.925 -59.976 37.733 -51.032 Z M95.187 5.269 Q101.798 8.518 109.662 10.329 Q117.526 12.14 124.038 12.339 Q124.411 12.339 124.659 12.091 Q124.907 11.842 124.907 11.47 V-4.357 Q124.907 -4.853 124.659 -5.194 Q124.411 -5.535 123.914 -5.597 L109.29 -8.611 Q108.918 -8.673 108.639 -8.58 Q108.36 -8.487 108.05 -8.239 L95.187 5.269 Z"/></g><g id="Thin-L" transform="matrix(1 0 0 1 787.282 1556)"><path d="M121.868 16.37 Q106.264 16.37 89.252 8.084 Q72.24 -0.202 57.306 -15.198 Q42.372 -30.194 34.086 -47.144 Q25.8 -64.094 25.8 -79.698 Q25.8 -82.754 27.802 -84.792 Q29.805 -86.83 32.808 -86.83 H47.039 Q49.826 -86.83 51.687 -85.156 Q53.547 -83.481 54.316 -80.69 L57.666 -66.384 Q58 -63.821 57.411 -61.78 Q56.822 -59.74 55.371 -58.414 L41.02 -45.017 Q45.46 -37.301 50.384 -30.802 Q55.309 -24.302 60.828 -18.696 Q66.919 -12.444 73.902 -7.303 Q80.885 -2.161 89.134 2.329 L103.088 -11.985 Q104.701 -13.759 106.575 -14.342 Q108.449 -14.925 110.742 -14.602 L122.86 -11.898 Q125.651 -11.377 127.326 -9.24 Q129 -7.103 129 -4.344 V9.362 Q129 12.365 126.962 14.368 Q124.924 16.37 121.868 16.37 Z M38.539 -49.42  52.096 -62.022 Q52.592 -62.518 52.778 -63.387 Q52.964 -64.255 52.84 -64.999 L49.504 -79.884 Q49.38 -80.876 48.697 -81.372 Q48.015 -81.868 47.023 -81.868 H32.498 Q31.754 -81.868 31.258 -81.372 Q30.762 -80.876 30.762 -80.132 Q30.712 -73.483 32.752 -65.799 Q34.793 -58.115 38.539 -49.42 Z M93.947 4.648 Q100.558 8.084 108.546 9.771 Q116.534 11.458 122.302 11.533 Q123.046 11.533 123.542 11.036 Q124.038 10.54 124.038 9.796 V-4.605 Q124.038 -5.597 123.542 -6.279 Q123.046 -6.962 122.054 -7.086 L109.414 -9.728 Q108.67 -9.852 108.112 -9.666 Q107.554 -9.48 106.934 -8.983 L93.947 4.648 Z"/></g><g id="Ultralight-L" transform="matrix(1 0 0 1 491.205 1556)"><path d="M119.97 14.435 Q105.296 14.435 89.01 6.373 Q72.724 -1.69 58.292 -16.202 Q43.86 -30.715 35.797 -46.921 Q27.735 -63.126 27.735 -77.8 Q27.735 -80.841 29.716 -82.868 Q31.697 -84.895 34.669 -84.895 H46.396 Q49.343 -84.895 51.278 -83.202 Q53.212 -81.509 54.019 -78.606 L57.071 -66.087 Q57.405 -63.449 56.76 -61.352 Q56.115 -59.256 54.627 -57.93 L40.796 -45.389 Q45.311 -37.487 50.31 -30.876 Q55.309 -24.265 60.791 -18.621 Q66.919 -12.332 74.014 -7.172 Q81.109 -2.012 89.655 2.664 L103.2 -11.204 Q104.812 -12.977 106.613 -13.542 Q108.413 -14.106 110.779 -13.784 L120.776 -11.526 Q123.679 -11.042 125.372 -8.847 Q127.065 -6.651 127.065 -3.786 V7.501 Q127.065 10.473 125.038 12.454 Q123.011 14.435 119.97 14.435 Z M39.023 -48.452  52.729 -60.869 Q53.374 -61.514 53.616 -62.642 Q53.858 -63.771 53.696 -64.739 L50.471 -78.767 Q50.31 -80.057 49.423 -80.702 Q48.536 -81.347 47.246 -81.347 H33.54 Q32.572 -81.347 31.928 -80.702 Q31.283 -80.057 31.283 -79.09 Q31.121 -72.479 33.218 -64.739 Q35.314 -56.999 39.023 -48.452 Z M93.203 4.276 Q99.814 7.824 107.876 9.436 Q115.939 11.049 121.26 11.049 Q122.228 11.049 122.873 10.404 Q123.517 9.759 123.517 8.791 V-4.754 Q123.517 -6.044 122.873 -6.931 Q122.228 -7.817 120.938 -7.979 L109.489 -10.397 Q108.521 -10.559 107.796 -10.317 Q107.07 -10.075 106.264 -9.43 L93.203 4.276 Z"/></g><g id="Bold-M" transform="matrix(1 0 0 1 2281.8 1126)"><path d="M100 14.02 Q83.613 14.02 67.619 6.895 Q51.625 -0.23 38.375 -13.417 Q25.125 -26.605 18 -42.64 Q10.875 -58.675 10.875 -75.105 Q10.875 -79.123 13.518 -81.801 Q16.161 -84.48 20.125 -84.48 H40.25 Q44.875 -84.48 47.75 -82.23 Q50.625 -79.98 51.625 -75.73 L54.75 -60.855 Q55.5 -56.98 54.688 -54.23 Q53.875 -51.48 51.375 -49.355 L38.5 -38.105 Q40.5 -34.855 43.188 -31.542 Q45.875 -28.23 49.5 -24.73 Q52.75 -21.48 55.75 -19.042 Q58.75 -16.605 61.75 -14.855 L74.375 -27.105 Q76.875 -29.48 79.938 -30.292 Q83 -31.105 86.625 -30.355 L100.5 -27.23 Q104.875 -25.98 107.062 -23.355 Q109.25 -20.73 109.25 -16.48 V4.645 Q109.25 8.663 106.562 11.341 Q103.875 14.02 100 14.02 Z M30.875 -52.23  39 -59.355 Q39 -59.355 39 -59.355 Q39 -59.355 39 -59.355 L37.125 -68.73 Q37.125 -68.73 37.125 -68.73 Q37.125 -68.73 37.125 -68.73 H26.875 Q26.875 -68.73 26.875 -68.73 Q26.875 -68.73 26.875 -68.73 Q27.25 -64.48 28.182 -60.362 Q29.114 -56.245 30.875 -52.23 Z M76.125 -6.855 Q80.25 -5.105 84.625 -3.98 Q89 -2.855 93.5 -2.23 Q93.5 -2.23 93.5 -2.23 Q93.5 -2.23 93.5 -2.23 V-12.605 Q93.5 -12.605 93.5 -12.605 Q93.5 -12.605 93.5 -12.605 L84.25 -14.73 Q84.25 -14.73 84.25 -14.73 Q84.25 -14.73 84.25 -14.73 L76.125 -6.855 Z"/></g><g id="Semibold-M" transform="matrix(1 0 0 1 1985.97 1126)"><path d="M99.891 12.172 Q83.835 12.172 68.165 5.183 Q52.495 -1.806 39.571 -14.695 Q26.647 -27.583 19.657 -43.277 Q12.668 -58.971 12.668 -75.051 Q12.668 -78.3 14.814 -80.466 Q16.96 -82.632 20.179 -82.632 H40.359 Q43.734 -82.632 45.957 -80.844 Q48.179 -79.056 48.853 -75.947 L52.033 -59.931 Q52.565 -56.871 51.943 -54.719 Q51.321 -52.567 49.473 -50.931 L36.924 -39.246 Q39.141 -35.398 42.155 -31.651 Q45.169 -27.904 49.011 -24.186 Q52.533 -20.665 56.076 -17.847 Q59.62 -15.029 63.38 -12.844 L75.625 -24.877 Q77.527 -26.708 80.046 -27.412 Q82.565 -28.116 85.375 -27.583 L100.717 -24.295 Q103.951 -23.371 105.677 -21.317 Q107.402 -19.263 107.402 -16.154 V4.591 Q107.402 7.84 105.231 10.006 Q103.06 12.172 99.891 12.172 Z M30.549 -51.36  38.728 -58.975 Q38.728 -58.975 38.728 -58.975 Q38.728 -58.975 38.728 -58.975 L36.745 -69.382 Q36.745 -69.382 36.745 -69.382 Q36.745 -69.382 36.745 -69.382 H26.114 Q26.114 -69.382 26.114 -69.382 Q26.114 -69.382 26.114 -69.382 Q26.598 -64.752 27.614 -60.25 Q28.63 -55.749 30.549 -51.36 Z M75.582 -6.257 Q80.033 -4.344 84.707 -3.165 Q89.38 -1.985 94.152 -1.469 Q94.152 -1.469 94.152 -1.469 Q94.152 -1.469 94.152 -1.469 V-12.116 Q94.152 -12.116 94.152 -12.116 Q94.152 -12.116 94.152 -12.116 L83.815 -14.35 Q83.815 -14.35 83.815 -14.35 Q83.815 -14.35 83.815 -14.35 L75.582 -6.257 Z"/></g><g id="Medium-M" transform="matrix(1 0 0 1 1689.91 1126)"><path d="M99.81 10.786 Q84.002 10.786 68.575 3.899 Q53.147 -2.988 40.467 -15.652 Q27.788 -28.317 20.901 -43.755 Q14.014 -59.192 14.014 -75.01 Q14.014 -77.683 15.787 -79.464 Q17.56 -81.246 20.22 -81.246 H40.44 Q42.878 -81.246 44.611 -79.805 Q46.345 -78.363 46.775 -76.11 L49.995 -59.238 Q50.364 -56.79 49.885 -55.086 Q49.405 -53.382 48.046 -52.113 L35.742 -40.102 Q38.122 -35.806 41.38 -31.733 Q44.639 -27.659 48.644 -23.779 Q52.37 -20.053 56.321 -16.95 Q60.272 -13.847 64.603 -11.336 L76.562 -23.206 Q78.016 -24.629 80.128 -25.252 Q82.239 -25.874 84.438 -25.504 L100.88 -22.094 Q103.258 -21.415 104.637 -19.788 Q106.016 -18.162 106.016 -15.909 V4.55 Q106.016 7.223 104.232 9.005 Q102.448 10.786 99.81 10.786 Z M30.304 -50.708  38.525 -58.689 Q38.525 -58.689 38.525 -58.689 Q38.525 -58.689 38.525 -58.689 L36.459 -69.871 Q36.459 -69.871 36.459 -69.871 Q36.459 -69.871 36.459 -69.871 H25.544 Q25.544 -69.871 25.544 -69.871 Q25.544 -69.871 25.544 -69.871 Q26.109 -64.955 27.188 -60.166 Q28.267 -55.377 30.304 -50.708 Z M75.174 -5.809 Q79.87 -3.773 84.768 -2.553 Q89.666 -1.333 94.641 -0.898 Q94.641 -0.898 94.641 -0.898 Q94.641 -0.898 94.641 -0.898 V-11.749 Q94.641 -11.749 94.641 -11.749 Q94.641 -11.749 94.641 -11.749 L83.489 -14.064 Q83.489 -14.064 83.489 -14.064 Q83.489 -14.064 83.489 -14.064 L75.174 -5.809 Z"/></g><g id="Regular-M" transform="matrix(1 0 0 1 1394.06 1126)"><path d="M99.75 9.77 Q84.125 9.77 68.875 2.958 Q53.625 -3.855 41.125 -16.355 Q28.625 -28.855 21.812 -44.105 Q15 -59.355 15 -74.98 Q15 -77.23 16.5 -78.73 Q18 -80.23 20.25 -80.23 H40.5 Q42.25 -80.23 43.625 -79.042 Q45 -77.855 45.25 -76.23 L48.5 -58.73 Q48.75 -56.73 48.375 -55.355 Q48 -53.98 47 -52.98 L34.875 -40.73 Q37.375 -36.105 40.812 -31.792 Q44.25 -27.48 48.375 -23.48 Q52.25 -19.605 56.5 -16.292 Q60.75 -12.98 65.5 -10.23 L77.25 -21.98 Q78.375 -23.105 80.188 -23.667 Q82 -24.23 83.75 -23.98 L101 -20.48 Q102.75 -19.98 103.875 -18.667 Q105 -17.355 105 -15.73 V4.52 Q105 6.77 103.5 8.27 Q102 9.77 99.75 9.77 Z M30.125 -50.23  38.375 -58.48 Q38.375 -58.48 38.375 -58.48 Q38.375 -58.48 38.375 -58.48 L36.25 -70.23 Q36.25 -70.23 36.25 -70.23 Q36.25 -70.23 36.25 -70.23 H25.125 Q25.125 -70.23 25.125 -70.23 Q25.125 -70.23 25.125 -70.23 Q25.75 -65.105 26.875 -60.105 Q28 -55.105 30.125 -50.23 Z M74.875 -5.48 Q79.75 -3.355 84.812 -2.105 Q89.875 -0.855 95 -0.48 Q95 -0.48 95 -0.48 Q95 -0.48 95 -0.48 V-11.48 Q95 -11.48 95 -11.48 Q95 -11.48 95 -11.48 L83.25 -13.855 Q83.25 -13.855 83.25 -13.855 Q83.25 -13.855 83.25 -13.855 L74.875 -5.48 Z"/></g><g id="Light-M" transform="matrix(1 0 0 1 1098.18 1126)"><path d="M97.202 7.27 Q83.067 7.27 68.803 0.698 Q54.538 -5.874 42.592 -17.845 Q30.644 -29.817 24.072 -44.057 Q17.5 -58.297 17.5 -72.432 Q17.5 -74.702 19 -76.216 Q20.5 -77.73 22.75 -77.73 H39.058 Q40.952 -77.73 42.399 -76.494 Q43.846 -75.259 44.24 -73.441 L47.106 -58.73 Q47.404 -56.682 46.981 -55.211 Q46.558 -53.74 45.461 -52.74 L33.913 -41.499 Q36.702 -36.393 40.284 -31.841 Q43.865 -27.288 48.038 -23.143 Q52.154 -19.028 56.788 -15.499 Q61.423 -11.97 66.798 -8.932 L78.019 -20.249 Q79.192 -21.47 80.861 -21.961 Q82.529 -22.451 84.327 -22.201 L98.211 -19.374 Q100.106 -18.874 101.303 -17.441 Q102.5 -16.009 102.5 -14.191 V2.02 Q102.5 4.27 100.986 5.77 Q99.472 7.27 97.202 7.27 Z M30.365 -48.595  39.288 -57.134 Q39.529 -57.326 39.601 -57.663 Q39.673 -57.999 39.577 -58.288 L37.404 -69.461 Q37.308 -69.845 37.067 -70.038 Q36.827 -70.23 36.442 -70.23 H25.75 Q25.462 -70.23 25.269 -70.038 Q25.077 -69.845 25.077 -69.557 Q25.462 -64.432 26.755 -59.143 Q28.048 -53.855 30.365 -48.595 Z M73.865 -5.384 Q78.837 -3.066 84.236 -1.84 Q89.635 -0.615 94.327 -0.384 Q94.615 -0.384 94.808 -0.576 Q95 -0.768 95 -1.057 V-11.576 Q95 -11.961 94.808 -12.201 Q94.615 -12.442 94.231 -12.538 L83.731 -14.672 Q83.442 -14.768 83.226 -14.696 Q83.01 -14.624 82.769 -14.384 L73.865 -5.384 Z"/></g><g id="Thin-M" transform="matrix(1 0 0 1 802.565 1126)"><path d="M94.654 4.77 Q82.01 4.77 68.731 -1.562 Q55.452 -7.893 44.058 -19.336 Q32.663 -30.778 26.332 -44.009 Q20 -57.24 20 -69.884 Q20 -72.175 21.5 -73.702 Q23 -75.23 25.25 -75.23 H37.615 Q39.654 -75.23 41.173 -73.946 Q42.692 -72.663 43.231 -70.653 L45.712 -58.73 Q46.058 -56.634 45.587 -55.066 Q45.115 -53.499 43.923 -52.499 L32.952 -42.268 Q36.029 -36.682 39.755 -31.889 Q43.481 -27.095 47.702 -22.807 Q52.058 -18.451 57.077 -14.706 Q62.096 -10.961 68.096 -7.634 L78.788 -18.518 Q80.01 -19.836 81.534 -20.254 Q83.058 -20.672 84.904 -20.422 L95.423 -18.268 Q97.462 -17.768 98.731 -16.216 Q100 -14.663 100 -12.653 V-0.48 Q100 1.77 98.472 3.27 Q96.945 4.77 94.654 4.77 Z M30.606 -46.961  40.202 -55.788 Q40.683 -56.172 40.827 -56.845 Q40.971 -57.518 40.779 -58.095 L38.558 -68.691 Q38.365 -69.461 37.885 -69.845 Q37.404 -70.23 36.635 -70.23 H26.375 Q25.798 -70.23 25.413 -69.845 Q25.029 -69.461 25.029 -68.884 Q25.173 -63.759 26.635 -58.182 Q28.096 -52.605 30.606 -46.961 Z M72.856 -5.288 Q77.923 -2.778 83.659 -1.576 Q89.394 -0.374 93.654 -0.288 Q94.231 -0.288 94.615 -0.672 Q95 -1.057 95 -1.634 V-11.672 Q95 -12.441 94.615 -12.922 Q94.231 -13.403 93.462 -13.595 L84.212 -15.49 Q83.635 -15.682 83.202 -15.538 Q82.769 -15.393 82.288 -14.913 L72.856 -5.288 Z"/></g><g id="Ultralight-M" transform="matrix(1 0 0 1 506.415 1126)"><path d="M93.125 3.27 Q81.375 3.27 68.688 -2.917 Q56 -9.105 44.938 -20.23 Q33.875 -31.355 27.688 -43.98 Q21.5 -56.605 21.5 -68.355 Q21.5 -70.659 23 -72.194 Q24.5 -73.73 26.75 -73.73 H36.75 Q38.875 -73.73 40.438 -72.417 Q42 -71.105 42.625 -68.98 L44.875 -58.73 Q45.25 -56.605 44.75 -54.98 Q44.25 -53.355 43 -52.355 L32.375 -42.73 Q35.625 -36.855 39.438 -31.917 Q43.25 -26.98 47.5 -22.605 Q52 -18.105 57.25 -14.23 Q62.5 -10.355 68.875 -6.855 L79.25 -17.48 Q80.5 -18.855 81.938 -19.23 Q83.375 -19.605 85.25 -19.355 L93.75 -17.605 Q95.875 -17.105 97.188 -15.48 Q98.5 -13.855 98.5 -11.73 V-1.98 Q98.5 0.27 96.964 1.77 Q95.429 3.27 93.125 3.27 Z M30.75 -45.98  40.75 -54.98 Q41.375 -55.48 41.562 -56.355 Q41.75 -57.23 41.5 -57.98 L39.25 -68.23 Q39 -69.23 38.375 -69.73 Q37.75 -70.23 36.75 -70.23 H26.75 Q26 -70.23 25.5 -69.73 Q25 -69.23 25 -68.48 Q25 -63.355 26.562 -57.605 Q28.125 -51.855 30.75 -45.98 Z M72.25 -5.23 Q77.375 -2.605 83.312 -1.417 Q89.25 -0.23 93.25 -0.23 Q94 -0.23 94.5 -0.73 Q95 -1.23 95 -1.98 V-11.73 Q95 -12.73 94.5 -13.355 Q94 -13.98 93 -14.23 L84.5 -15.98 Q83.75 -16.23 83.188 -16.042 Q82.625 -15.855 82 -15.23 L72.25 -5.23 Z"/></g><g id="Bold-S" transform="matrix(1 0 0 1 2294.23 696)"><path d="M75.448 1.163 Q62.913 0.275 51.625 -4.952 Q40.338 -10.179 31.264 -19.203 Q22.191 -28.228 17.062 -39.499 Q11.934 -50.77 10.947 -63.338 Q10.75 -66.804 13.061 -69.263 Q15.371 -71.721 18.837 -71.721 H32.152 Q36.097 -71.721 38.513 -69.847 Q40.929 -67.973 41.916 -64.324 L44.184 -55.941 Q44.776 -53.18 44.085 -50.911 Q43.395 -48.643 41.422 -46.966 L31.264 -38.09 Q32.842 -35.427 34.815 -32.764 Q36.787 -30.101 39.546 -27.44 Q42.014 -24.973 44.381 -23.148 Q46.748 -21.324 49.115 -20.14 L59.57 -30.003 Q61.443 -31.778 63.613 -32.321 Q65.783 -32.863 68.544 -32.271 L76.434 -30.299 Q80.182 -29.214 82.007 -26.945 Q83.831 -24.677 83.831 -20.929 V-6.826 Q83.831 -3.318 81.316 -0.979 Q78.801 1.36 75.448 1.163 Z M25.741 -48.643  32.546 -54.659 Q32.546 -54.659 32.546 -54.659 Q32.546 -54.659 32.546 -54.659 L31.051 -60.083 Q31.051 -60.083 31.051 -60.083 Q31.051 -60.083 31.051 -60.083 H22.881 Q22.881 -60.083 22.881 -60.083 Q22.881 -60.083 22.881 -60.083 Q23.177 -57.026 23.912 -54.221 Q24.648 -51.416 25.741 -48.643 Z M60.063 -14.223 Q62.933 -13.114 65.985 -12.386 Q69.038 -11.659 72.194 -10.968 Q72.194 -10.968 72.194 -10.968 Q72.194 -10.968 72.194 -10.968 V-19.351 Q72.194 -19.351 72.194 -19.351 Q72.194 -19.351 72.194 -19.351 L66.769 -20.732 Q66.769 -20.732 66.769 -20.732 Q66.769 -20.732 66.769 -20.732 L60.063 -14.223 Z"/></g><g id="Semibold-S" transform="matrix(1 0 0 1 1998.1 696)"><path d="M75.362 -0.295 Q63.089 -1.183 52.056 -6.303 Q41.024 -11.423 32.207 -20.211 Q23.391 -28.999 18.37 -40.001 Q13.349 -51.003 12.362 -63.295 Q12.165 -66.155 14.084 -68.209 Q16.002 -70.263 18.88 -70.263 H32.238 Q35.196 -70.263 37.098 -68.754 Q39 -67.245 39.729 -64.496 L42.04 -55.212 Q42.46 -53.094 41.92 -51.297 Q41.38 -49.501 39.922 -48.21 L30.021 -38.991 Q31.77 -35.856 34 -32.85 Q36.23 -29.844 39.16 -27.011 Q41.843 -24.33 44.639 -22.205 Q47.434 -20.08 50.402 -18.554 L60.556 -28.245 Q61.958 -29.591 63.699 -30.048 Q65.44 -30.505 67.558 -30.085 L76.606 -27.983 Q79.453 -27.156 80.913 -25.338 Q82.373 -23.519 82.373 -20.672 V-6.869 Q82.373 -3.967 80.266 -2.033 Q78.158 -0.098 75.362 -0.295 Z M25.484 -47.957  32.332 -54.359 Q32.332 -54.359 32.332 -54.359 Q32.332 -54.359 32.332 -54.359 L30.751 -60.598 Q30.751 -60.598 30.751 -60.598 Q30.751 -60.598 30.751 -60.598 H22.281 Q22.281 -60.598 22.281 -60.598 Q22.281 -60.598 22.281 -60.598 Q22.662 -57.241 23.464 -54.133 Q24.266 -51.025 25.484 -47.957 Z M59.634 -13.751 Q62.761 -12.514 66.049 -11.743 Q69.338 -10.973 72.708 -10.368 Q72.708 -10.368 72.708 -10.368 Q72.708 -10.368 72.708 -10.368 V-18.965 Q72.708 -18.965 72.708 -18.965 Q72.708 -18.965 72.708 -18.965 L66.426 -20.432 Q66.426 -20.432 66.426 -20.432 Q66.426 -20.432 66.426 -20.432 L59.634 -13.751 Z"/></g><g id="Medium-S" transform="matrix(1 0 0 1 1701.85 696)"><path d="M75.298 -1.389 Q63.221 -2.276 52.379 -7.316 Q41.538 -12.355 32.915 -20.967 Q24.292 -29.578 19.351 -40.378 Q14.41 -51.178 13.424 -63.263 Q13.227 -65.668 14.851 -67.419 Q16.476 -69.17 18.912 -69.17 H32.302 Q34.521 -69.17 36.037 -67.934 Q37.553 -66.698 38.089 -64.624 L40.432 -54.666 Q40.724 -53.03 40.296 -51.587 Q39.868 -50.144 38.796 -49.143 L29.088 -39.666 Q30.966 -36.178 33.389 -32.914 Q35.812 -29.651 38.87 -26.69 Q41.714 -23.847 44.831 -21.498 Q47.949 -19.148 51.366 -17.364 L61.295 -26.926 Q62.344 -27.951 63.763 -28.343 Q65.183 -28.736 66.818 -28.444 L76.734 -26.247 Q78.906 -25.612 80.093 -24.132 Q81.28 -22.651 81.28 -20.479 V-6.901 Q81.28 -4.454 79.478 -2.823 Q77.676 -1.191 75.298 -1.389 Z M25.291 -47.442  32.171 -54.134 Q32.171 -54.134 32.171 -54.134 Q32.171 -54.134 32.171 -54.134 L30.526 -60.984 Q30.526 -60.984 30.526 -60.984 Q30.526 -60.984 30.526 -60.984 H21.83 Q21.83 -60.984 21.83 -60.984 Q21.83 -60.984 21.83 -60.984 Q22.276 -57.401 23.128 -54.067 Q23.979 -50.732 25.291 -47.442 Z M59.312 -13.397 Q62.632 -12.063 66.098 -11.261 Q69.563 -10.458 73.094 -9.918 Q73.094 -9.918 73.094 -9.918 Q73.094 -9.918 73.094 -9.918 V-18.676 Q73.094 -18.676 73.094 -18.676 Q73.094 -18.676 73.094 -18.676 L66.169 -20.207 Q66.169 -20.207 66.169 -20.207 Q66.169 -20.207 66.169 -20.207 L59.312 -13.397 Z"/></g><g id="Regular-S" transform="matrix(1 0 0 1 1405.73 696)"><path d="M75.251 -2.191 Q63.317 -3.078 52.616 -8.059 Q41.916 -13.039 33.434 -21.521 Q24.952 -30.003 20.07 -40.654 Q15.188 -51.306 14.202 -63.239 Q14.005 -65.311 15.414 -66.839 Q16.823 -68.368 18.936 -68.368 H32.349 Q34.026 -68.368 35.258 -67.332 Q36.491 -66.297 36.886 -64.719 L39.253 -54.265 Q39.45 -52.982 39.105 -51.799 Q38.76 -50.615 37.971 -49.826 L28.404 -40.161 Q30.377 -36.413 32.941 -32.962 Q35.505 -29.51 38.658 -26.454 Q41.62 -23.494 44.973 -20.979 Q48.326 -18.464 52.074 -16.491 L61.838 -25.959 Q62.627 -26.748 63.81 -27.093 Q64.994 -27.439 66.276 -27.241 L76.829 -24.973 Q78.505 -24.48 79.492 -23.247 Q80.478 -22.014 80.478 -20.338 V-6.925 Q80.478 -4.811 78.9 -3.402 Q77.322 -1.993 75.251 -2.191 Z M25.149 -47.065  32.053 -53.969 Q32.053 -53.969 32.053 -53.969 Q32.053 -53.969 32.053 -53.969 L30.361 -61.267 Q30.361 -61.267 30.361 -61.267 Q30.361 -61.267 30.361 -61.267 H21.5 Q21.5 -61.267 21.5 -61.267 Q21.5 -61.267 21.5 -61.267 Q21.993 -57.519 22.881 -54.018 Q23.769 -50.517 25.149 -47.065 Z M59.076 -13.138 Q62.538 -11.733 66.133 -10.907 Q69.728 -10.081 73.377 -9.587 Q73.377 -9.587 73.377 -9.587 Q73.377 -9.587 73.377 -9.587 V-18.464 Q73.377 -18.464 73.377 -18.464 Q73.377 -18.464 73.377 -18.464 L65.98 -20.042 Q65.98 -20.042 65.98 -20.042 Q65.98 -20.042 65.98 -20.042 L59.076 -13.138 Z"/></g><g id="Light-S" transform="matrix(1 0 0 1 1109.75 696)"><path d="M73.24 -4.163 Q62.483 -5.051 52.56 -9.842 Q42.636 -14.633 34.591 -22.697 Q26.545 -30.762 21.853 -40.616 Q17.161 -50.471 16.175 -61.229 Q15.977 -63.316 17.386 -64.856 Q18.795 -66.395 20.909 -66.395 H31.211 Q33.001 -66.395 34.291 -65.322 Q35.581 -64.248 36.089 -62.519 L38.153 -54.265 Q38.388 -52.945 38.005 -51.685 Q37.622 -50.426 36.757 -49.637 L27.645 -40.768 Q29.845 -36.641 32.523 -33 Q35.202 -29.358 38.392 -26.188 Q41.544 -23.038 45.201 -20.353 Q48.857 -17.667 53.098 -15.467 L62.445 -24.594 Q63.272 -25.458 64.341 -25.747 Q65.411 -26.035 66.731 -25.838 L74.629 -24.1 Q76.419 -23.607 77.462 -22.28 Q78.505 -20.952 78.505 -19.124 V-8.897 Q78.505 -6.784 76.917 -5.375 Q75.328 -3.966 73.24 -4.163 Z M25.339 -45.775  32.774 -52.907 Q32.964 -53.058 33.02 -53.324 Q33.077 -53.589 33.002 -53.817 L31.271 -60.66 Q31.195 -60.964 31.006 -61.115 Q30.816 -61.267 30.512 -61.267 H21.993 Q21.766 -61.267 21.614 -61.115 Q21.462 -60.964 21.462 -60.736 Q21.766 -56.988 22.786 -53.259 Q23.807 -49.531 25.339 -45.775 Z M58.28 -13.062 Q61.817 -11.506 65.678 -10.698 Q69.538 -9.891 72.846 -9.512 Q73.074 -9.512 73.225 -9.663 Q73.377 -9.815 73.377 -10.043 V-18.54 Q73.377 -18.843 73.225 -19.033 Q73.074 -19.222 72.77 -19.298 L66.359 -20.687 Q66.132 -20.763 65.961 -20.706 Q65.79 -20.649 65.601 -20.459 L58.28 -13.062 Z"/></g><g id="Thin-S" transform="matrix(1 0 0 1 814.015 696)"><path d="M71.23 -6.136 Q61.648 -7.023 52.503 -11.625 Q43.357 -16.226 35.748 -23.873 Q28.138 -31.52 23.636 -40.579 Q19.133 -49.637 18.147 -59.219 Q17.95 -61.322 19.359 -62.873 Q20.768 -64.423 22.881 -64.423 H30.073 Q31.977 -64.423 33.324 -63.312 Q34.671 -62.2 35.293 -60.319 L37.053 -54.265 Q37.326 -52.907 36.905 -51.571 Q36.484 -50.236 35.543 -49.447 L26.887 -41.375 Q29.314 -36.869 32.106 -33.037 Q34.898 -29.206 38.127 -25.923 Q41.468 -22.583 45.428 -19.727 Q49.388 -16.871 54.122 -14.443 L63.052 -23.228 Q63.917 -24.169 64.872 -24.4 Q65.828 -24.632 67.186 -24.434 L72.429 -23.228 Q74.333 -22.735 75.433 -21.313 Q76.533 -19.89 76.533 -17.91 V-10.87 Q76.533 -8.756 74.933 -7.347 Q73.334 -5.938 71.23 -6.136 Z M25.529 -44.486  33.495 -51.845 Q33.874 -52.148 33.988 -52.679 Q34.101 -53.21 33.95 -53.665 L32.181 -60.053 Q32.03 -60.66 31.65 -60.964 Q31.271 -61.267 30.664 -61.267 H22.486 Q22.031 -61.267 21.728 -60.964 Q21.424 -60.66 21.424 -60.205 Q21.538 -56.457 22.691 -52.501 Q23.844 -48.544 25.529 -44.486 Z M57.483 -12.986 Q61.097 -11.278 65.223 -10.49 Q69.349 -9.701 72.315 -9.436 Q72.77 -9.436 73.074 -9.739 Q73.377 -10.043 73.377 -10.498 V-18.615 Q73.377 -19.222 73.074 -19.602 Q72.77 -19.981 72.163 -20.133 L66.739 -21.331 Q66.284 -21.483 65.942 -21.369 Q65.601 -21.256 65.222 -20.876 L57.483 -12.986 Z"/></g><g id="Ultralight-S" transform="matrix(1 0 0 1 517.792 696)"><path d="M70.024 -7.319 Q61.148 -8.207 52.468 -12.694 Q43.79 -17.182 36.442 -24.578 Q29.094 -31.975 24.706 -40.556 Q20.317 -49.136 19.331 -58.012 Q19.133 -60.126 20.542 -61.683 Q21.951 -63.239 24.065 -63.239 H29.39 Q31.363 -63.239 32.744 -62.105 Q34.124 -60.971 34.815 -58.999 L36.393 -54.265 Q36.689 -52.884 36.245 -51.503 Q35.801 -50.122 34.815 -49.333 L26.431 -41.739 Q28.996 -37.005 31.856 -33.06 Q34.716 -29.115 37.968 -25.764 Q41.422 -22.31 45.565 -19.351 Q49.707 -16.393 54.737 -13.828 L63.416 -22.409 Q64.303 -23.395 65.191 -23.592 Q66.079 -23.789 67.46 -23.592 L71.109 -22.705 Q73.081 -22.211 74.215 -20.732 Q75.35 -19.253 75.35 -17.182 V-12.053 Q75.35 -9.94 73.743 -8.531 Q72.137 -7.122 70.024 -7.319 Z M25.643 -43.712  33.927 -51.207 Q34.42 -51.602 34.568 -52.292 Q34.716 -52.982 34.519 -53.574 L32.728 -59.689 Q32.53 -60.478 32.037 -60.872 Q31.544 -61.267 30.755 -61.267 H22.782 Q22.191 -61.267 21.796 -60.872 Q21.402 -60.478 21.402 -59.886 Q21.402 -56.138 22.634 -52.046 Q23.867 -47.953 25.643 -43.712 Z M57.005 -12.941 Q60.664 -11.142 64.949 -10.364 Q69.235 -9.587 71.996 -9.39 Q72.588 -9.39 72.983 -9.785 Q73.377 -10.179 73.377 -10.771 V-18.661 Q73.377 -19.45 72.983 -19.943 Q72.588 -20.436 71.799 -20.633 L66.966 -21.718 Q66.375 -21.916 65.931 -21.768 Q65.487 -21.62 64.994 -21.127 L57.005 -12.941 Z"/></g></g></svg>