<svg xmlns="http://www.w3.org/2000/svg" version="1.1" width="3300" height="2000"><g id="Notes"><style>
    text {
      font-family: monospace;
      text-anchor: middle;
    }
    text.emphasis {
      font-weight:bold;
    }
    text.lanchor {
      text-anchor: start;
    }
  </style><rect height="2200" id="artboard" fill="white" width="3300" x="0" y="0"/><line id="" style="fill:none;stroke:black;stroke-width:0.5;" x1="263" x2="3036" y1="292" y2="292"/><text class="lanchor emphasis" transform="matrix(1 0 0 1 263 322)">Weight/Scale Variations</text><text transform="matrix(1 0 0 1 559.711 322)">Ultralight</text><text transform="matrix(1 0 0 1 856.422 322)">Thin</text><text transform="matrix(1 0 0 1 1153.13 322)">Light</text><text transform="matrix(1 0 0 1 1449.84 322)">Regular</text><text transform="matrix(1 0 0 1 1746.56 322)">Medium</text><text transform="matrix(1 0 0 1 2043.27 322)">Semibold</text><text transform="matrix(1 0 0 1 2339.98 322)">Bold</text><text transform="matrix(1 0 0 1 2636.69 322)">Heavy</text><text transform="matrix(1 0 0 1 2933.4 322)">Black</text><text id="template-version" style="text-anchor: end;" transform="matrix(1 0 0 1 3036 1933)">Template v.1.0</text><text class="lanchor" transform="matrix(1 0 0 1 263 726)">Small</text><text class="lanchor" transform="matrix(1 0 0 1 263 1156)">Medium</text><text class="lanchor" transform="matrix(1 0 0 1 263 1586)">Large</text></g><g id="Guides"><g id="H-reference" style="fill:#27AAE1;stroke:none;" transform="matrix(1 0 0 1 339 696)"><path d="M 54.9316 0 L 57.666 0 L 30.5664 -70.459 L 28.0762 -70.459 L 0.976562 0 L 3.66211 0 L 12.9395 -24.4629 L 45.7031 -24.4629 Z M 29.1992 -67.0898 L 29.4434 -67.0898 L 44.8242 -26.709 L 13.8184 -26.709 Z"/></g><line id="Baseline-S" style="fill:none;stroke:#27AAE1;opacity:1;stroke-width:0.577;" x1="263" x2="3036" y1="696" y2="696"/><line id="Capline-S" style="fill:none;stroke:#27AAE1;opacity:1;stroke-width:0.577;" x1="263" x2="3036" y1="625.541" y2="625.541"/><g id="H-reference" style="fill:#27AAE1;stroke:none;" transform="matrix(1 0 0 1 339 1126)"><path d="M 54.9316 0 L 57.666 0 L 30.5664 -70.459 L 28.0762 -70.459 L 0.976562 0 L 3.66211 0 L 12.9395 -24.4629 L 45.7031 -24.4629 Z M 29.1992 -67.0898 L 29.4434 -67.0898 L 44.8242 -26.709 L 13.8184 -26.709 Z"/></g><line id="Baseline-M" style="fill:none;stroke:#27AAE1;opacity:1;stroke-width:0.577;" x1="263" x2="3036" y1="1126" y2="1126"/><line id="Capline-M" style="fill:none;stroke:#27AAE1;opacity:1;stroke-width:0.577;" x1="263" x2="3036" y1="1055.54" y2="1055.54"/><g id="H-reference" style="fill:#27AAE1;stroke:none;" transform="matrix(1 0 0 1 339 1556)"><path d="M 54.9316 0 L 57.666 0 L 30.5664 -70.459 L 28.0762 -70.459 L 0.976562 0 L 3.66211 0 L 12.9395 -24.4629 L 45.7031 -24.4629 Z M 29.1992 -67.0898 L 29.4434 -67.0898 L 44.8242 -26.709 L 13.8184 -26.709 Z"/></g><line id="Baseline-L" style="fill:none;stroke:#27AAE1;opacity:1;stroke-width:0.577;" x1="263" x2="3036" y1="1556" y2="1556"/><line id="Capline-L" style="fill:none;stroke:#27AAE1;opacity:1;stroke-width:0.577;" x1="263" x2="3036" y1="1485.54" y2="1485.54"/><rect height="119.336" id="left-margin" style="fill:darkred;stroke:none;opacity:0.4;" width="12.4512" x="1394.06" y="1030.79"/><rect height="119.336" id="right-margin" style="fill:darkgreen;stroke:none;opacity:0.4;" width="12.4512" x="1502.5112" y="1030.79"/><rect x="1406.5112" y="1045" width="96" height="96" fill="none" stroke="blue" stroke-dasharray="5"/><rect x="1394.06" y="1030.79" width="120.9024" height="119.336" fill="none" stroke="blue"/></g><g id="Symbols"><g id="Bold-L" transform="matrix(1 0 0 1 2266 1556)"><path d="M77.367 -37.487 Q64.918 -37.487 57.05 -45.356 Q49.181 -53.224 49.181 -65.673 Q49.181 -78.122 57.05 -86.024 Q64.918 -93.925 77.367 -93.925 Q89.816 -93.925 97.798 -86.024 Q105.78 -78.122 105.78 -65.673 Q105.78 -53.224 97.798 -45.356 Q89.816 -37.487 77.367 -37.487 Z M21.769 22.498 V3.019 Q21.769 -4.157 25.45 -9.513 Q29.131 -14.869 34.991 -17.654 Q46.117 -22.652 56.512 -25.152 Q66.906 -27.651 77.357 -27.651 Q88.117 -27.651 98.4 -25.071 Q108.683 -22.491 119.648 -17.654 Q125.712 -15.081 129.452 -9.675 Q133.192 -4.27 133.192 2.977 V22.498 H21.769 Z"/></g><g id="Semibold-L" transform="matrix(1 0 0 1 1970.27 1556)"><path d="M77.381 -36.576 Q65.718 -36.576 58.326 -43.968 Q50.934 -51.36 50.934 -63.024 Q50.934 -74.687 58.326 -82.098 Q65.718 -89.509 77.381 -89.509 Q89.045 -89.509 96.501 -82.098 Q103.957 -74.687 103.957 -63.024 Q103.957 -51.36 96.501 -43.968 Q89.045 -36.576 77.381 -36.576 Z M23.521 19.833 V2.234 Q23.521 -4.487 26.934 -9.407 Q30.347 -14.327 35.762 -16.883 Q46.748 -21.811 56.935 -24.276 Q67.122 -26.74 77.375 -26.74 Q87.804 -26.74 97.893 -24.195 Q107.981 -21.65 118.876 -16.883 Q124.478 -14.447 127.924 -9.499 Q131.37 -4.55 131.37 2.21 V19.833 H23.521 Z"/></g><g id="Medium-L" transform="matrix(1 0 0 1 1674.31 1556)"><path d="M77.392 -35.893 Q66.318 -35.893 59.283 -42.927 Q52.249 -49.962 52.249 -61.036 Q52.249 -72.111 59.283 -79.153 Q66.318 -86.196 77.392 -86.196 Q88.467 -86.196 95.528 -79.153 Q102.59 -72.111 102.59 -61.036 Q102.59 -49.962 95.528 -42.927 Q88.467 -35.893 77.392 -35.893 Z M24.836 17.835 V1.645 Q24.836 -4.734 28.047 -9.327 Q31.259 -13.92 36.341 -16.304 Q47.222 -21.18 57.253 -23.618 Q67.284 -26.056 77.39 -26.056 Q87.57 -26.056 97.513 -23.538 Q107.456 -21.019 118.298 -16.304 Q123.552 -13.971 126.777 -9.366 Q130.003 -4.761 130.003 1.634 V17.835 H24.836 Z"/></g><g id="Regular-L" transform="matrix(1 0 0 1 1378.56 1556)"><path d="M77.4 -35.391 Q66.758 -35.391 59.985 -42.164 Q53.212 -48.936 53.212 -59.579 Q53.212 -70.221 59.985 -76.994 Q66.758 -83.766 77.4 -83.766 Q88.043 -83.766 94.815 -76.994 Q101.588 -70.221 101.588 -59.579 Q101.588 -48.936 94.815 -42.164 Q88.043 -35.391 77.4 -35.391 Z M25.8 16.37 V1.213 Q25.8 -4.915 28.864 -9.269 Q31.928 -13.622 36.765 -15.88 Q47.569 -20.717 57.486 -23.136 Q67.403 -25.555 77.4 -25.555 Q87.398 -25.555 97.234 -23.056 Q107.07 -20.556 117.874 -15.88 Q122.873 -13.622 125.936 -9.269 Q129 -4.915 129 1.213 V16.37 H25.8 Z"/></g><g id="Light-L" transform="matrix(1 0 0 1 1082.77 1556)"><path d="M77.4 -37.314 Q68.088 -37.314 62.046 -43.356 Q56.004 -49.398 56.004 -58.71 Q56.004 -68.085 62.046 -74.096 Q68.088 -80.107 77.4 -80.107 Q86.712 -80.107 92.754 -74.096 Q98.796 -68.085 98.796 -58.71 Q98.796 -49.398 92.754 -43.356 Q86.712 -37.314 77.4 -37.314 Z M29.025 11.904 V-0.338 Q29.025 -5.535 31.779 -9.393 Q34.532 -13.25 38.936 -15.322 Q49.119 -19.849 58.571 -22.144 Q68.023 -24.439 77.4 -24.439 Q86.777 -24.439 96.179 -22.094 Q105.582 -19.75 115.765 -15.322 Q120.268 -13.25 123.021 -9.393 Q125.775 -5.535 125.775 -0.338 V11.904 H29.025 Z"/></g><g id="Thin-L" transform="matrix(1 0 0 1 787.282 1556)"><path d="M77.4 -39.236 Q69.418 -39.236 64.106 -44.548 Q58.794 -49.86 58.794 -57.842 Q58.794 -65.948 64.106 -71.198 Q69.418 -76.448 77.4 -76.448 Q85.382 -76.448 90.694 -71.198 Q96.006 -65.948 96.006 -57.842 Q96.006 -49.86 90.694 -44.548 Q85.382 -39.236 77.4 -39.236 Z M32.25 7.439 V-1.888 Q32.25 -6.155 34.694 -9.517 Q37.137 -12.878 41.106 -14.764 Q50.67 -18.981 59.656 -21.152 Q68.643 -23.322 77.4 -23.322 Q86.157 -23.322 95.125 -21.133 Q104.093 -18.944 113.656 -14.764 Q117.663 -12.878 120.106 -9.517 Q122.55 -6.155 122.55 -1.888 V7.439 H32.25 Z"/></g><g id="Ultralight-L" transform="matrix(1 0 0 1 491.205 1556)"><path d="M77.4 -40.39 Q70.216 -40.39 65.343 -45.264 Q60.469 -50.138 60.469 -57.321 Q60.469 -64.666 65.343 -69.459 Q70.216 -74.252 77.4 -74.252 Q84.584 -74.252 89.457 -69.459 Q94.331 -64.666 94.331 -57.321 Q94.331 -50.138 89.457 -45.264 Q84.584 -40.39 77.4 -40.39 Z M34.185 4.76 V-2.819 Q34.185 -6.527 36.443 -9.591 Q38.7 -12.655 42.409 -14.429 Q51.6 -18.46 60.308 -20.556 Q69.015 -22.652 77.4 -22.652 Q85.785 -22.652 94.493 -20.556 Q103.2 -18.46 112.391 -14.429 Q116.1 -12.655 118.358 -9.591 Q120.615 -6.527 120.615 -2.819 V4.76 H34.185 Z"/></g><g id="Bold-M" transform="matrix(1 0 0 1 2281.8 1126)"><path d="M60 -37.355 Q49.875 -37.355 42.812 -44.417 Q35.75 -51.48 35.75 -61.605 Q35.75 -71.73 42.812 -78.73 Q49.875 -85.73 60 -85.73 Q70.125 -85.73 77.188 -78.73 Q84.25 -71.73 84.25 -61.605 Q84.25 -51.48 77.188 -44.417 Q70.125 -37.355 60 -37.355 Z M15.75 11.145 V-7.355 Q15.75 -12.768 18.587 -17.305 Q21.424 -21.842 26.125 -24.23 Q34.25 -28.23 42.745 -30.292 Q51.24 -32.355 60 -32.355 Q69 -32.355 77.5 -30.355 Q86 -28.355 93.875 -24.355 Q98.576 -21.985 101.413 -17.483 Q104.25 -12.98 104.25 -7.362 V11.145 H15.75 Z"/></g><g id="Semibold-M" transform="matrix(1 0 0 1 1985.97 1126)"><path d="M60 -36.431 Q50.69 -36.431 44.144 -42.977 Q37.598 -49.524 37.598 -58.833 Q37.598 -68.143 44.144 -74.654 Q50.69 -81.165 60 -81.165 Q69.31 -81.165 75.856 -74.654 Q82.402 -68.143 82.402 -58.833 Q82.402 -49.524 75.856 -42.977 Q69.31 -36.431 60 -36.431 Z M17.598 8.374 V-8.17 Q17.598 -13.077 20.152 -17.191 Q22.707 -21.304 26.94 -23.469 Q34.902 -27.415 43.182 -29.423 Q51.462 -31.431 60 -31.431 Q68.674 -31.431 76.957 -29.458 Q85.239 -27.485 93.06 -23.54 Q97.293 -21.385 99.848 -17.291 Q102.402 -13.197 102.402 -8.174 V8.374 H17.598 Z"/></g><g id="Medium-M" transform="matrix(1 0 0 1 1689.91 1126)"><path d="M60 -35.738 Q51.302 -35.738 45.143 -41.897 Q38.984 -48.056 38.984 -56.754 Q38.984 -65.453 45.143 -71.597 Q51.302 -77.741 60 -77.741 Q68.698 -77.741 74.857 -71.597 Q81.016 -65.453 81.016 -56.754 Q81.016 -48.056 74.857 -41.897 Q68.698 -35.738 60 -35.738 Z M18.984 6.295 V-8.782 Q18.984 -13.31 21.326 -17.105 Q23.669 -20.901 27.552 -22.898 Q35.391 -26.803 43.51 -28.771 Q51.628 -30.738 60 -30.738 Q68.429 -30.738 76.549 -28.786 Q84.668 -26.833 92.448 -22.928 Q96.331 -20.935 98.674 -17.148 Q101.016 -13.36 101.016 -8.783 V6.295 H18.984 Z"/></g><g id="Regular-M" transform="matrix(1 0 0 1 1394.06 1126)"><path d="M60 -35.23 Q51.75 -35.23 45.875 -41.105 Q40 -46.98 40 -55.23 Q40 -63.48 45.875 -69.355 Q51.75 -75.23 60 -75.23 Q68.25 -75.23 74.125 -69.355 Q80 -63.48 80 -55.23 Q80 -46.98 74.125 -41.105 Q68.25 -35.23 60 -35.23 Z M20 4.77 V-9.23 Q20 -13.48 22.188 -17.042 Q24.375 -20.605 28 -22.48 Q35.75 -26.355 43.75 -28.292 Q51.75 -30.23 60 -30.23 Q68.25 -30.23 76.25 -28.292 Q84.25 -26.355 92 -22.48 Q95.625 -20.605 97.812 -17.042 Q100 -13.48 100 -9.23 V4.77 H20 Z"/></g><g id="Light-M" transform="matrix(1 0 0 1 1098.18 1126)"><path d="M60 -36.769 Q52.781 -36.769 47.641 -41.909 Q42.5 -47.05 42.5 -54.268 Q42.5 -61.487 47.641 -66.628 Q52.781 -71.768 60 -71.768 Q67.219 -71.768 72.359 -66.628 Q77.5 -61.487 77.5 -54.268 Q77.5 -47.05 72.359 -41.909 Q67.219 -36.769 60 -36.769 Z M22.5 1.308 V-9.807 Q22.5 -13.48 24.495 -16.61 Q26.491 -19.739 29.827 -21.422 Q37.24 -25.057 44.784 -26.874 Q52.327 -28.691 60 -28.691 Q67.673 -28.691 75.216 -26.874 Q82.76 -25.057 90.173 -21.422 Q93.51 -19.739 95.505 -16.61 Q97.5 -13.48 97.5 -9.807 V1.308 H22.5 Z"/></g><g id="Thin-M" transform="matrix(1 0 0 1 802.565 1126)"><path d="M60 -38.307 Q53.812 -38.307 49.406 -42.713 Q45 -47.119 45 -53.307 Q45 -59.494 49.406 -63.901 Q53.812 -68.307 60 -68.307 Q66.188 -68.307 70.594 -63.901 Q75 -59.494 75 -53.307 Q75 -47.119 70.594 -42.713 Q66.188 -38.307 60 -38.307 Z M25 -2.153 V-10.384 Q25 -13.48 26.803 -16.177 Q28.606 -18.874 31.654 -20.365 Q38.731 -23.759 45.817 -25.456 Q52.904 -27.153 60 -27.153 Q67.096 -27.153 74.183 -25.456 Q81.269 -23.759 88.346 -20.365 Q91.394 -18.874 93.197 -16.177 Q95 -13.48 95 -10.384 V-2.153 H25 Z"/></g><g id="Ultralight-M" transform="matrix(1 0 0 1 506.415 1126)"><path d="M60 -39.23 Q54.431 -39.23 50.466 -43.196 Q46.5 -47.161 46.5 -52.73 Q46.5 -58.299 50.466 -62.264 Q54.431 -66.23 60 -66.23 Q65.569 -66.23 69.534 -62.264 Q73.5 -58.299 73.5 -52.73 Q73.5 -47.161 69.534 -43.196 Q65.569 -39.23 60 -39.23 Z M26.5 -4.23 V-10.73 Q26.5 -13.48 28.188 -15.917 Q29.875 -18.355 32.75 -19.73 Q39.625 -22.98 46.438 -24.605 Q53.25 -26.23 60 -26.23 Q66.75 -26.23 73.562 -24.605 Q80.375 -22.98 87.25 -19.73 Q90.125 -18.355 91.812 -15.917 Q93.5 -13.48 93.5 -10.73 V-4.23 H26.5 Z"/></g><g id="Bold-S" transform="matrix(1 0 0 1 2294.23 696)"><path d="M47.34 -36.907 Q39.943 -36.907 34.864 -41.986 Q29.785 -47.065 29.785 -54.462 Q29.785 -61.859 34.864 -66.889 Q39.943 -71.918 47.34 -71.918 Q54.737 -71.918 59.816 -66.889 Q64.895 -61.859 64.895 -54.462 Q64.895 -47.065 59.816 -41.986 Q54.737 -36.907 47.34 -36.907 Z M15.583 -1.796 V-14.815 Q15.583 -18 17.328 -20.791 Q19.073 -23.582 22.092 -25.367 Q27.812 -28.622 34.268 -30.397 Q40.724 -32.173 47.34 -32.173 Q54.145 -32.173 60.605 -30.447 Q67.065 -28.721 72.588 -25.466 Q75.607 -23.794 77.352 -20.981 Q79.097 -18.168 79.097 -14.82 V-1.796 H15.583 Z"/></g><g id="Semibold-S" transform="matrix(1 0 0 1 1998.1 696)"><path d="M47.34 -36.178 Q40.586 -36.178 35.914 -40.85 Q31.243 -45.521 31.243 -52.275 Q31.243 -59.029 35.914 -63.673 Q40.586 -68.317 47.34 -68.317 Q54.094 -68.317 58.766 -63.673 Q63.437 -59.029 63.437 -52.275 Q63.437 -45.521 58.766 -40.85 Q54.094 -36.178 47.34 -36.178 Z M17.041 -3.983 V-15.458 Q17.041 -18.245 18.563 -20.701 Q20.085 -23.158 22.735 -24.767 Q28.327 -27.979 34.613 -29.711 Q40.899 -31.444 47.34 -31.444 Q53.888 -31.444 60.176 -29.739 Q66.465 -28.035 71.945 -24.823 Q74.595 -23.32 76.117 -20.83 Q77.639 -18.339 77.639 -15.461 V-3.983 H17.041 Z"/></g><g id="Medium-S" transform="matrix(1 0 0 1 1701.85 696)"><path d="M47.34 -35.631 Q41.069 -35.631 36.702 -39.997 Q32.336 -44.364 32.336 -50.635 Q32.336 -56.906 36.702 -61.261 Q41.069 -65.615 47.34 -65.615 Q53.611 -65.615 57.978 -61.261 Q62.344 -56.906 62.344 -50.635 Q62.344 -44.364 57.978 -39.997 Q53.611 -35.631 47.34 -35.631 Z M18.134 -5.623 V-15.94 Q18.134 -18.428 19.489 -20.634 Q20.845 -22.839 23.218 -24.317 Q28.713 -27.497 34.872 -29.197 Q41.03 -30.897 47.34 -30.897 Q53.695 -30.897 59.855 -29.209 Q66.014 -27.52 71.462 -24.341 Q73.835 -22.965 75.191 -20.717 Q76.546 -18.468 76.546 -15.942 V-5.623 H18.134 Z"/></g><g id="Regular-S" transform="matrix(1 0 0 1 1405.73 696)"><path d="M47.34 -35.23 Q41.422 -35.23 37.28 -39.372 Q33.138 -43.514 33.138 -49.432 Q33.138 -55.349 37.28 -59.492 Q41.422 -63.634 47.34 -63.634 Q53.258 -63.634 57.4 -59.492 Q61.542 -55.349 61.542 -49.432 Q61.542 -43.514 57.4 -39.372 Q53.258 -35.23 47.34 -35.23 Z M18.936 -6.826 V-16.294 Q18.936 -18.562 20.169 -20.584 Q21.402 -22.606 23.571 -23.987 Q28.996 -27.143 35.061 -28.819 Q41.127 -30.496 47.34 -30.496 Q53.553 -30.496 59.619 -28.819 Q65.684 -27.143 71.109 -23.987 Q73.278 -22.705 74.511 -20.633 Q75.744 -18.562 75.744 -16.294 V-6.826 H18.936 Z"/></g><g id="Light-S" transform="matrix(1 0 0 1 1109.75 696)"><path d="M47.34 -36.444 Q42.236 -36.444 38.673 -40.007 Q35.111 -43.57 35.111 -48.673 Q35.111 -53.777 38.673 -57.34 Q42.236 -60.903 47.34 -60.903 Q52.444 -60.903 56.007 -57.34 Q59.569 -53.777 59.569 -48.673 Q59.569 -43.57 56.007 -40.007 Q52.444 -36.444 47.34 -36.444 Z M20.909 -9.557 V-16.749 Q20.909 -18.562 21.99 -20.243 Q23.071 -21.923 25.013 -23.152 Q30.172 -26.119 35.877 -27.7 Q41.582 -29.282 47.34 -29.282 Q53.098 -29.282 58.803 -27.7 Q64.508 -26.119 69.667 -23.152 Q71.609 -22.022 72.69 -20.292 Q73.771 -18.562 73.771 -16.749 V-9.557 H20.909 Z"/></g><g id="Thin-S" transform="matrix(1 0 0 1 814.015 696)"><path d="M47.34 -37.658 Q43.05 -37.658 40.066 -40.641 Q37.083 -43.624 37.083 -47.915 Q37.083 -52.205 40.066 -55.188 Q43.05 -58.172 47.34 -58.172 Q51.63 -58.172 54.614 -55.188 Q57.597 -52.205 57.597 -47.915 Q57.597 -43.624 54.614 -40.641 Q51.63 -37.658 47.34 -37.658 Z M22.881 -12.288 V-17.204 Q22.881 -18.562 23.81 -19.901 Q24.74 -21.24 26.454 -22.318 Q31.348 -25.094 36.692 -26.581 Q42.037 -28.068 47.34 -28.068 Q52.643 -28.068 57.988 -26.581 Q63.332 -25.094 68.226 -22.318 Q69.94 -21.339 70.87 -19.951 Q71.799 -18.562 71.799 -17.204 V-12.288 H22.881 Z"/></g><g id="Ultralight-S" transform="matrix(1 0 0 1 517.792 696)"><path d="M47.34 -38.386 Q43.538 -38.386 40.902 -41.022 Q38.267 -43.658 38.267 -47.459 Q38.267 -51.261 40.902 -53.897 Q43.538 -56.533 47.34 -56.533 Q51.142 -56.533 53.778 -53.897 Q56.413 -51.261 56.413 -47.459 Q56.413 -43.658 53.778 -41.022 Q51.142 -38.386 47.34 -38.386 Z M24.065 -13.927 V-17.477 Q24.065 -18.562 24.903 -19.697 Q25.741 -20.831 27.319 -21.817 Q32.053 -24.48 37.182 -25.91 Q42.31 -27.34 47.34 -27.34 Q52.37 -27.34 57.498 -25.91 Q62.627 -24.48 67.361 -21.817 Q68.939 -20.929 69.777 -19.746 Q70.615 -18.562 70.615 -17.477 V-13.927 H24.065 Z"/></g></g></svg>