<svg xmlns="http://www.w3.org/2000/svg" version="1.1" width="3300" height="2000"><g id="Notes"><style>
    text {
      font-family: monospace;
      text-anchor: middle;
    }
    text.emphasis {
      font-weight:bold;
    }
    text.lanchor {
      text-anchor: start;
    }
  </style><rect height="2200" id="artboard" fill="white" width="3300" x="0" y="0"/><line id="" style="fill:none;stroke:black;stroke-width:0.5;" x1="263" x2="3036" y1="292" y2="292"/><text class="lanchor emphasis" transform="matrix(1 0 0 1 263 322)">Weight/Scale Variations</text><text transform="matrix(1 0 0 1 559.711 322)">Ultralight</text><text transform="matrix(1 0 0 1 856.422 322)">Thin</text><text transform="matrix(1 0 0 1 1153.13 322)">Light</text><text transform="matrix(1 0 0 1 1449.84 322)">Regular</text><text transform="matrix(1 0 0 1 1746.56 322)">Medium</text><text transform="matrix(1 0 0 1 2043.27 322)">Semibold</text><text transform="matrix(1 0 0 1 2339.98 322)">Bold</text><text transform="matrix(1 0 0 1 2636.69 322)">Heavy</text><text transform="matrix(1 0 0 1 2933.4 322)">Black</text><text id="template-version" style="text-anchor: end;" transform="matrix(1 0 0 1 3036 1933)">Template v.1.0</text><text class="lanchor" transform="matrix(1 0 0 1 263 726)">Small</text><text class="lanchor" transform="matrix(1 0 0 1 263 1156)">Medium</text><text class="lanchor" transform="matrix(1 0 0 1 263 1586)">Large</text></g><g id="Guides"><g id="H-reference" style="fill:#27AAE1;stroke:none;" transform="matrix(1 0 0 1 339 696)"><path d="M 54.9316 0 L 57.666 0 L 30.5664 -70.459 L 28.0762 -70.459 L 0.976562 0 L 3.66211 0 L 12.9395 -24.4629 L 45.7031 -24.4629 Z M 29.1992 -67.0898 L 29.4434 -67.0898 L 44.8242 -26.709 L 13.8184 -26.709 Z"/></g><line id="Baseline-S" style="fill:none;stroke:#27AAE1;opacity:1;stroke-width:0.577;" x1="263" x2="3036" y1="696" y2="696"/><line id="Capline-S" style="fill:none;stroke:#27AAE1;opacity:1;stroke-width:0.577;" x1="263" x2="3036" y1="625.541" y2="625.541"/><g id="H-reference" style="fill:#27AAE1;stroke:none;" transform="matrix(1 0 0 1 339 1126)"><path d="M 54.9316 0 L 57.666 0 L 30.5664 -70.459 L 28.0762 -70.459 L 0.976562 0 L 3.66211 0 L 12.9395 -24.4629 L 45.7031 -24.4629 Z M 29.1992 -67.0898 L 29.4434 -67.0898 L 44.8242 -26.709 L 13.8184 -26.709 Z"/></g><line id="Baseline-M" style="fill:none;stroke:#27AAE1;opacity:1;stroke-width:0.577;" x1="263" x2="3036" y1="1126" y2="1126"/><line id="Capline-M" style="fill:none;stroke:#27AAE1;opacity:1;stroke-width:0.577;" x1="263" x2="3036" y1="1055.54" y2="1055.54"/><g id="H-reference" style="fill:#27AAE1;stroke:none;" transform="matrix(1 0 0 1 339 1556)"><path d="M 54.9316 0 L 57.666 0 L 30.5664 -70.459 L 28.0762 -70.459 L 0.976562 0 L 3.66211 0 L 12.9395 -24.4629 L 45.7031 -24.4629 Z M 29.1992 -67.0898 L 29.4434 -67.0898 L 44.8242 -26.709 L 13.8184 -26.709 Z"/></g><line id="Baseline-L" style="fill:none;stroke:#27AAE1;opacity:1;stroke-width:0.577;" x1="263" x2="3036" y1="1556" y2="1556"/><line id="Capline-L" style="fill:none;stroke:#27AAE1;opacity:1;stroke-width:0.577;" x1="263" x2="3036" y1="1485.54" y2="1485.54"/><rect height="119.336" id="left-margin" style="fill:darkred;stroke:none;opacity:0.4;" width="12.4512" x="1394.06" y="1030.79"/><rect height="119.336" id="right-margin" style="fill:darkgreen;stroke:none;opacity:0.4;" width="12.4512" x="1502.5112" y="1030.79"/><rect x="1406.5112" y="1045" width="96" height="96" fill="none" stroke="blue" stroke-dasharray="5"/><rect x="1394.06" y="1030.79" width="120.9024" height="119.336" fill="none" stroke="blue"/></g><g id="Symbols"><g id="Bold-L" transform="matrix(1 0 0 1 2266 1556)"><path d="M2.419 22.498 V2.986 Q2.419 -3.835 5.917 -9.285 Q9.416 -14.734 15.641 -17.654 Q27.735 -22.814 37.648 -25.232 Q47.56 -27.651 58.052 -27.651 Q68.854 -27.651 78.609 -25.313 Q88.365 -22.975 100.459 -17.654 Q106.642 -14.941 110.242 -9.479 Q113.843 -4.017 113.843 2.977 V22.498 H2.419 Z M125.291 22.498 V3.309 Q125.291 -7.172 120.212 -14.348 Q115.133 -21.524 106.425 -27.329 Q116.261 -25.877 125.049 -23.539 Q133.838 -21.201 139.643 -18.299 Q145.447 -15.235 148.914 -9.461 Q152.381 -3.687 152.381 3.801 V22.498 H125.291 Z M58.09 -37.487 Q46.44 -37.487 39.184 -44.744 Q31.928 -52 31.928 -63.691 Q31.928 -75.381 39.191 -82.637 Q46.454 -89.894 58.057 -89.894 Q69.66 -89.894 76.997 -82.633 Q84.334 -75.371 84.334 -63.771 Q84.334 -52 77.037 -44.744 Q69.74 -37.487 58.09 -37.487 Z M122.066 -63.773 Q122.066 -52.161 114.738 -44.824 Q107.409 -37.487 95.743 -37.487 Q93.798 -37.487 91.807 -37.81 Q89.816 -38.132 87.559 -38.939 Q91.751 -43.292 93.767 -49.557 Q95.782 -55.822 95.782 -63.667 Q95.782 -71.511 93.742 -77.555 Q91.701 -83.599 87.559 -88.463 Q89.494 -89.087 91.629 -89.491 Q93.764 -89.894 95.742 -89.894 Q107.35 -89.894 114.708 -82.553 Q122.066 -75.213 122.066 -63.773 Z M17.576 7.34 H98.524 V3.631 Q98.524 1.156 96.992 -1.178 Q95.46 -3.511 93.203 -4.431 Q82.237 -9.107 74.82 -10.72 Q67.403 -12.332 58.05 -12.332 Q49.02 -12.332 41.28 -10.72 Q33.54 -9.107 22.736 -4.431 Q20.64 -3.535 19.108 -1.194 Q17.576 1.147 17.576 3.631 V7.34 Z M58.024 -50.871 Q63.637 -50.871 67.294 -54.48 Q70.95 -58.089 70.95 -63.671 Q70.95 -69.254 67.341 -72.882 Q63.732 -76.51 58.15 -76.51 Q52.568 -76.51 48.939 -72.927 Q45.311 -69.343 45.311 -63.797 Q45.311 -58.184 48.895 -54.528 Q52.478 -50.871 58.024 -50.871 Z"/></g><g id="Semibold-L" transform="matrix(1 0 0 1 1970.27 1556)"><path d="M4.031 19.833 V2.215 Q4.031 -4.094 7.27 -9.173 Q10.51 -14.251 16.272 -16.883 Q28.226 -22.043 37.93 -24.391 Q47.634 -26.74 57.911 -26.74 Q68.363 -26.74 77.943 -24.437 Q87.524 -22.134 99.477 -16.883 Q105.215 -14.367 108.548 -9.282 Q111.88 -4.197 111.88 2.21 V19.833 H4.031 Z M122.557 19.833 V2.397 Q122.557 -7.944 117.443 -14.839 Q112.328 -21.734 103.761 -26.768 Q114.158 -25.387 123.402 -22.979 Q132.646 -20.57 138.591 -17.528 Q144.186 -14.464 147.477 -9.237 Q150.769 -4.011 150.769 2.676 V19.833 H122.557 Z M57.932 -36.576 Q46.72 -36.576 39.674 -43.622 Q32.629 -50.668 32.629 -61.903 Q32.629 -73.138 39.678 -80.184 Q46.728 -87.23 57.914 -87.23 Q69.099 -87.23 76.191 -80.181 Q83.282 -73.132 83.282 -61.948 Q83.282 -50.668 76.213 -43.622 Q69.144 -36.576 57.932 -36.576 Z M119.332 -61.949 Q119.332 -50.759 112.245 -43.668 Q105.159 -36.576 93.937 -36.576 Q92.067 -36.576 89.995 -36.864 Q87.923 -37.151 85.876 -37.887 Q89.928 -42.101 91.944 -48.201 Q93.96 -54.301 93.96 -61.889 Q93.96 -69.478 91.93 -75.313 Q89.9 -81.148 85.876 -85.931 Q87.741 -86.494 89.894 -86.862 Q92.048 -87.23 93.937 -87.23 Q105.125 -87.23 112.229 -80.136 Q119.332 -73.043 119.332 -61.949 Z M16.805 7.06 H99.014 V2.58 Q99.014 0.059 97.483 -2.312 Q95.951 -4.682 93.693 -5.623 Q82.448 -10.51 74.82 -12.192 Q67.192 -13.875 57.91 -13.875 Q48.81 -13.875 40.965 -12.192 Q33.119 -10.51 21.965 -5.623 Q19.799 -4.696 18.302 -2.321 Q16.805 0.054 16.805 2.58 V7.06 Z M57.895 -48.348 Q63.802 -48.348 67.656 -52.175 Q71.511 -56.003 71.511 -61.892 Q71.511 -67.782 67.683 -71.62 Q63.856 -75.458 57.966 -75.458 Q52.077 -75.458 48.238 -71.645 Q44.4 -67.832 44.4 -61.963 Q44.4 -56.056 48.213 -52.202 Q52.026 -48.348 57.895 -48.348 Z"/></g><g id="Medium-L" transform="matrix(1 0 0 1 1674.31 1556)"><path d="M5.241 17.835 V1.637 Q5.241 -4.289 8.286 -9.088 Q11.331 -13.888 16.745 -16.304 Q28.594 -21.464 38.142 -23.76 Q47.69 -26.056 57.805 -26.056 Q67.995 -26.056 77.444 -23.779 Q86.893 -21.503 98.741 -16.304 Q104.146 -13.938 107.276 -9.135 Q110.407 -4.332 110.407 1.634 V17.835 H5.241 Z M120.506 17.835 V1.714 Q120.506 -8.522 115.366 -15.207 Q110.225 -21.892 101.763 -26.347 Q112.581 -25.019 122.166 -22.558 Q131.752 -20.097 137.802 -16.949 Q143.239 -13.885 146.399 -9.069 Q149.559 -4.253 149.559 1.832 V17.835 H120.506 Z M57.814 -35.893 Q46.931 -35.893 40.043 -42.781 Q33.154 -49.669 33.154 -60.562 Q33.154 -71.455 40.044 -78.343 Q46.934 -85.232 57.806 -85.232 Q68.678 -85.232 75.586 -78.342 Q82.493 -71.453 82.493 -60.581 Q82.493 -49.669 75.595 -42.781 Q68.698 -35.893 57.814 -35.893 Z M117.281 -60.582 Q117.281 -49.708 110.376 -42.8 Q103.47 -35.893 92.583 -35.893 Q90.768 -35.893 88.636 -36.154 Q86.504 -36.415 84.614 -37.098 Q88.561 -41.207 90.577 -47.183 Q92.593 -53.159 92.593 -60.556 Q92.593 -67.953 90.571 -73.631 Q88.549 -79.309 84.614 -84.031 Q86.426 -84.548 88.593 -84.89 Q90.76 -85.232 92.583 -85.232 Q103.456 -85.232 110.369 -78.323 Q117.281 -71.415 117.281 -60.582 Z M16.227 6.849 H99.383 V1.791 Q99.383 -0.764 97.851 -3.163 Q96.319 -5.561 94.061 -6.517 Q82.606 -11.561 74.82 -13.296 Q67.034 -15.032 57.805 -15.032 Q48.652 -15.032 40.728 -13.296 Q32.804 -11.561 21.387 -6.517 Q19.168 -5.566 17.697 -3.166 Q16.227 -0.766 16.227 1.791 V6.849 Z M57.798 -46.454 Q63.926 -46.454 67.928 -50.446 Q71.932 -54.438 71.932 -60.557 Q71.932 -66.677 67.94 -70.673 Q63.948 -74.67 57.828 -74.67 Q51.709 -74.67 47.712 -70.684 Q43.716 -66.699 43.716 -60.588 Q43.716 -54.46 47.702 -50.457 Q51.687 -46.454 57.798 -46.454 Z"/></g><g id="Regular-L" transform="matrix(1 0 0 1 1378.56 1556)"><path d="M6.128 16.37 V1.213 Q6.128 -4.431 9.03 -9.027 Q11.933 -13.622 17.093 -15.88 Q28.864 -21.04 38.297 -23.297 Q47.73 -25.555 57.727 -25.555 Q67.725 -25.555 77.078 -23.297 Q86.43 -21.04 98.201 -15.88 Q103.361 -13.622 106.344 -9.027 Q109.328 -4.431 109.328 1.213 V16.37 H6.128 Z M119.002 16.37 V1.213 Q119.002 -8.946 113.843 -15.477 Q108.683 -22.007 100.297 -26.039 Q111.424 -24.749 121.26 -22.249 Q131.096 -19.75 137.224 -16.525 Q142.545 -13.461 145.609 -8.946 Q148.673 -4.431 148.673 1.213 V16.37 H119.002 Z M57.727 -35.391 Q47.085 -35.391 40.312 -42.164 Q33.54 -48.936 33.54 -59.579 Q33.54 -70.221 40.312 -76.994 Q47.085 -83.766 57.727 -83.766 Q68.37 -83.766 75.142 -76.994 Q81.915 -70.221 81.915 -59.579 Q81.915 -48.936 75.142 -42.164 Q68.37 -35.391 57.727 -35.391 Z M115.778 -59.579 Q115.778 -48.936 109.005 -42.164 Q102.233 -35.391 91.59 -35.391 Q89.816 -35.391 87.639 -35.633 Q85.463 -35.875 83.689 -36.52 Q87.559 -40.551 89.574 -46.437 Q91.59 -52.322 91.59 -59.579 Q91.59 -66.835 89.574 -72.398 Q87.559 -77.961 83.689 -82.637 Q85.463 -83.121 87.639 -83.444 Q89.816 -83.766 91.59 -83.766 Q102.233 -83.766 109.005 -76.994 Q115.778 -70.221 115.778 -59.579 Z M15.803 6.695 H99.653 V1.213 Q99.653 -1.367 98.121 -3.786 Q96.589 -6.205 94.331 -7.172 Q82.721 -12.332 74.82 -14.106 Q66.919 -15.88 57.727 -15.88 Q48.536 -15.88 40.554 -14.106 Q32.572 -12.332 20.963 -7.172 Q18.705 -6.205 17.254 -3.786 Q15.803 -1.367 15.803 1.213 V6.695 Z M57.727 -45.066 Q64.016 -45.066 68.128 -49.178 Q72.24 -53.29 72.24 -59.579 Q72.24 -65.867 68.128 -69.979 Q64.016 -74.091 57.727 -74.091 Q51.439 -74.091 47.327 -69.979 Q43.215 -65.867 43.215 -59.579 Q43.215 -53.29 47.327 -49.178 Q51.439 -45.066 57.727 -45.066 Z"/></g><g id="Light-L" transform="matrix(1 0 0 1 1082.77 1556)"><path d="M11.337 11.904 V-0.338 Q11.337 -5.424 13.961 -9.337 Q16.584 -13.25 21.307 -15.327 Q31.779 -19.924 40.437 -22.181 Q49.094 -24.439 59.743 -24.439 Q70.392 -24.439 78.969 -22.181 Q87.546 -19.924 98.081 -15.327 Q102.741 -13.25 105.414 -9.337 Q108.087 -5.424 108.087 -0.338 V11.904 H11.337 Z M118.63 11.904 V-0.152 Q118.63 -8.76 114.621 -14.514 Q110.612 -20.269 104.143 -23.93 Q112.726 -22.702 120.454 -20.575 Q128.181 -18.447 133.381 -15.779 Q137.955 -13.213 140.709 -9.184 Q143.463 -5.156 143.463 -0.152 V11.904 H118.63 Z M59.743 -37.314 Q50.4 -37.314 44.358 -43.356 Q38.316 -49.398 38.316 -58.741 Q38.316 -68.085 44.358 -74.096 Q50.4 -80.107 59.743 -80.107 Q69.086 -80.107 75.098 -74.096 Q81.109 -68.085 81.109 -58.741 Q81.109 -49.398 75.098 -43.356 Q69.086 -37.314 59.743 -37.314 Z M110.692 -58.741 Q110.692 -49.398 104.68 -43.356 Q98.669 -37.314 89.304 -37.314 Q88.204 -37.314 86.957 -37.463 Q85.711 -37.612 84.619 -38.008 Q88.075 -41.777 89.863 -47.057 Q91.652 -52.338 91.652 -58.718 Q91.652 -65.098 89.791 -70.103 Q87.931 -75.108 84.619 -79.474 Q85.649 -79.71 86.957 -79.908 Q88.266 -80.107 89.295 -80.107 Q98.669 -80.107 104.68 -74.096 Q110.692 -68.085 110.692 -58.741 Z M18.656 4.586 H100.769 V-0.338 Q100.769 -2.918 99.299 -5.182 Q97.829 -7.445 95.076 -8.785 Q84.954 -13.511 77.239 -15.316 Q69.524 -17.12 59.743 -17.12 Q49.963 -17.12 42.198 -15.316 Q34.433 -13.511 24.312 -8.785 Q21.558 -7.445 20.107 -5.182 Q18.656 -2.918 18.656 -0.338 V4.586 Z M59.712 -44.632 Q65.753 -44.632 69.772 -48.651 Q73.791 -52.67 73.791 -58.71 Q73.791 -64.751 69.772 -68.77 Q65.753 -72.789 59.712 -72.789 Q53.672 -72.789 49.653 -68.77 Q45.634 -64.751 45.634 -58.71 Q45.634 -52.67 49.653 -48.651 Q53.672 -44.632 59.712 -44.632 Z"/></g><g id="Thin-L" transform="matrix(1 0 0 1 787.282 1556)"><path d="M16.547 7.439 V-1.888 Q16.547 -6.416 18.891 -9.647 Q21.235 -12.878 25.52 -14.774 Q34.694 -18.807 42.576 -21.065 Q50.459 -23.322 61.759 -23.322 Q73.059 -23.322 80.861 -21.065 Q88.663 -18.807 97.96 -14.774 Q102.121 -12.878 104.484 -9.647 Q106.847 -6.416 106.847 -1.888 V7.439 H16.547 Z M118.258 7.439 V-1.516 Q118.258 -8.574 115.4 -13.552 Q112.541 -18.53 107.988 -21.821 Q114.029 -20.656 119.648 -18.9 Q125.266 -17.145 129.538 -15.034 Q133.366 -12.965 135.81 -9.423 Q138.253 -5.88 138.253 -1.516 V7.439 H118.258 Z M61.759 -39.236 Q53.715 -39.236 48.403 -44.548 Q43.091 -49.86 43.091 -57.904 Q43.091 -65.948 48.403 -71.198 Q53.715 -76.448 61.759 -76.448 Q69.803 -76.448 75.053 -71.198 Q80.303 -65.948 80.303 -57.904 Q80.303 -49.86 75.053 -44.548 Q69.803 -39.236 61.759 -39.236 Z M105.606 -57.904 Q105.606 -49.86 100.357 -44.548 Q95.107 -39.236 87.018 -39.236 Q86.591 -39.236 86.275 -39.292 Q85.959 -39.348 85.549 -39.497 Q88.591 -43.003 90.152 -47.678 Q91.714 -52.353 91.714 -57.858 Q91.714 -63.362 90.008 -67.809 Q88.303 -72.256 85.549 -76.312 Q85.835 -76.299 86.275 -76.374 Q86.715 -76.448 87.001 -76.448 Q95.107 -76.448 100.357 -71.198 Q105.606 -65.948 105.606 -57.904 Z M21.508 2.478 H101.885 V-1.888 Q101.885 -4.468 100.477 -6.577 Q99.07 -8.686 95.82 -10.397 Q87.187 -14.689 79.657 -16.525 Q72.128 -18.361 61.759 -18.361 Q51.389 -18.361 43.841 -16.525 Q36.294 -14.689 27.661 -10.397 Q24.411 -8.686 22.959 -6.577 Q21.508 -4.468 21.508 -1.888 V2.478 Z M61.697 -44.198 Q67.489 -44.198 71.415 -48.124 Q75.341 -52.05 75.341 -57.842 Q75.341 -63.635 71.415 -67.561 Q67.489 -71.486 61.697 -71.486 Q55.904 -71.486 51.978 -67.561 Q48.053 -63.635 48.053 -57.842 Q48.053 -52.05 51.978 -48.124 Q55.904 -44.198 61.697 -44.198 Z"/></g><g id="Ultralight-L" transform="matrix(1 0 0 1 491.205 1556)"><path d="M19.672 4.76 V-2.819 Q19.672 -7.011 21.849 -9.833 Q24.026 -12.655 28.049 -14.443 Q36.443 -18.137 43.86 -20.395 Q51.278 -22.652 62.968 -22.652 Q74.659 -22.652 81.996 -20.395 Q89.332 -18.137 97.888 -14.443 Q101.749 -12.655 103.926 -9.833 Q106.103 -7.011 106.103 -2.819 V4.76 H19.672 Z M118.035 4.76 V-2.335 Q118.035 -8.462 115.867 -12.975 Q113.698 -17.487 110.295 -20.556 Q114.81 -19.427 119.164 -17.896 Q123.517 -16.364 127.233 -14.586 Q130.613 -12.816 132.87 -9.565 Q135.127 -6.314 135.127 -2.335 V4.76 H118.035 Z M62.968 -40.39 Q55.704 -40.39 50.83 -45.264 Q45.956 -50.138 45.956 -57.402 Q45.956 -64.666 50.83 -69.459 Q55.704 -74.252 62.968 -74.252 Q70.232 -74.252 75.026 -69.459 Q79.819 -64.666 79.819 -57.402 Q79.819 -50.138 75.026 -45.264 Q70.232 -40.39 62.968 -40.39 Z M102.555 -57.402 Q102.555 -50.138 97.762 -45.264 Q92.969 -40.39 85.647 -40.39 Q85.624 -40.39 85.866 -40.39 Q86.108 -40.39 86.108 -40.39 Q88.901 -43.738 90.326 -48.05 Q91.751 -52.362 91.751 -57.341 Q91.751 -62.32 90.139 -66.432 Q88.526 -70.544 86.108 -74.414 Q85.946 -74.252 85.866 -74.252 Q85.785 -74.252 85.624 -74.252 Q92.969 -74.252 97.762 -69.459 Q102.555 -64.666 102.555 -57.402 Z M23.22 1.213 H102.555 V-2.819 Q102.555 -5.399 101.184 -7.414 Q99.814 -9.43 96.266 -11.365 Q88.526 -15.396 81.109 -17.251 Q73.691 -19.105 62.968 -19.105 Q52.245 -19.105 44.828 -17.251 Q37.41 -15.396 29.67 -11.365 Q26.123 -9.43 24.671 -7.414 Q23.22 -5.399 23.22 -2.819 V1.213 Z M62.888 -43.937 Q68.531 -43.937 72.401 -47.807 Q76.271 -51.677 76.271 -57.321 Q76.271 -62.965 72.401 -66.835 Q68.531 -70.705 62.888 -70.705 Q57.244 -70.705 53.374 -66.835 Q49.504 -62.965 49.504 -57.321 Q49.504 -51.677 53.374 -47.807 Q57.244 -43.937 62.888 -43.937 Z"/></g><g id="Bold-M" transform="matrix(1 0 0 1 2281.8 1126)"><path d="M1.125 11.145 V-7.355 Q1.125 -12.768 3.962 -17.305 Q6.799 -21.842 11.5 -24.23 Q19.625 -28.23 28.12 -30.292 Q36.615 -32.355 45.375 -32.355 Q54.375 -32.355 62.875 -30.355 Q71.375 -28.355 79.25 -24.355 Q83.951 -21.985 86.788 -17.483 Q89.625 -12.98 89.625 -7.362 V11.145 H1.125 Z M101.5 11.145 V-7.98 Q101.5 -13.98 98.562 -19.667 Q95.625 -25.355 89.625 -30.855 Q94.625 -29.855 99.25 -28.23 Q103.875 -26.605 108.25 -24.355 Q113.25 -21.855 116.062 -17.379 Q118.875 -12.903 118.875 -7.605 V11.145 H101.5 Z M45.375 -37.355 Q36.125 -37.355 29.688 -43.792 Q23.25 -50.23 23.25 -59.48 Q23.25 -68.73 29.688 -75.167 Q36.125 -81.605 45.375 -81.605 Q54.625 -81.605 61.062 -75.167 Q67.5 -68.73 67.5 -59.48 Q67.5 -50.23 61.062 -43.792 Q54.625 -37.355 45.375 -37.355 Z M101.5 -59.481 Q101.5 -50.355 95.007 -43.855 Q88.513 -37.355 79.395 -37.355 Q77.875 -37.355 75.875 -37.73 Q73.875 -38.105 72 -38.73 Q75.625 -42.98 77.5 -48.336 Q79.375 -53.693 79.375 -59.461 Q79.375 -65.23 77.5 -70.605 Q75.625 -75.98 72 -80.23 Q73.875 -80.98 75.625 -81.292 Q77.375 -81.605 79.316 -81.605 Q88.467 -81.605 94.984 -75.106 Q101.5 -68.607 101.5 -59.481 Z M16.875 -4.605 H73.875 V-6.73 Q73.875 -7.984 73.188 -9.009 Q72.5 -10.035 71.375 -10.605 Q65.375 -13.48 58.875 -15.042 Q52.375 -16.605 45.375 -16.605 Q38.625 -16.605 31.875 -15.042 Q25.125 -13.48 19.375 -10.605 Q18.25 -10.035 17.562 -9.009 Q16.875 -7.984 16.875 -6.73 V-4.605 Z M45.355 -51.23 Q48.75 -51.23 51.188 -53.648 Q53.625 -56.065 53.625 -59.46 Q53.625 -62.855 51.207 -65.292 Q48.79 -67.73 45.395 -67.73 Q42 -67.73 39.562 -65.312 Q37.125 -62.895 37.125 -59.5 Q37.125 -56.105 39.543 -53.667 Q41.96 -51.23 45.355 -51.23 Z"/></g><g id="Semibold-M" transform="matrix(1 0 0 1 1985.97 1126)"><path d="M2.81 8.374 V-8.17 Q2.81 -13.077 5.364 -17.191 Q7.919 -21.304 12.152 -23.469 Q20.114 -27.415 28.394 -29.423 Q36.673 -31.431 45.212 -31.431 Q53.886 -31.431 62.169 -29.458 Q70.451 -27.485 78.272 -23.54 Q82.505 -21.385 85.06 -17.291 Q87.614 -13.197 87.614 -8.174 V8.374 H2.81 Z M98.674 8.374 V-8.958 Q98.674 -14.741 95.682 -20.157 Q92.69 -25.572 86.853 -30.257 Q92.451 -29.366 97.511 -27.659 Q102.571 -25.953 107.163 -23.54 Q111.946 -21.04 114.568 -17.178 Q117.19 -13.317 117.19 -8.746 V8.374 H98.674 Z M45.212 -36.431 Q36.397 -36.431 30.204 -42.624 Q24.011 -48.817 24.011 -57.632 Q24.011 -66.447 30.204 -72.64 Q36.397 -78.833 45.212 -78.833 Q54.027 -78.833 60.22 -72.64 Q66.413 -66.447 66.413 -57.632 Q66.413 -48.817 60.22 -42.624 Q54.027 -36.431 45.212 -36.431 Z M98.674 -57.633 Q98.674 -48.888 92.45 -42.659 Q86.225 -36.431 77.484 -36.431 Q76.027 -36.431 73.973 -36.779 Q71.919 -37.127 70.261 -37.643 Q73.777 -41.784 75.625 -46.932 Q77.473 -52.079 77.473 -57.622 Q77.473 -63.165 75.625 -68.322 Q73.777 -73.48 70.261 -77.621 Q72.082 -78.317 73.832 -78.575 Q75.582 -78.833 77.44 -78.833 Q86.199 -78.833 92.436 -72.606 Q98.674 -66.378 98.674 -57.633 Z M16.06 -4.877 H74.364 V-7.817 Q74.364 -9.123 73.677 -10.192 Q72.989 -11.261 71.864 -11.855 Q65.538 -14.947 58.875 -16.564 Q52.212 -18.181 45.212 -18.181 Q38.353 -18.181 31.549 -16.564 Q24.745 -14.947 18.56 -11.855 Q17.435 -11.261 16.747 -10.192 Q16.06 -9.123 16.06 -7.817 V-4.877 Z M45.201 -48.621 Q48.913 -48.621 51.568 -51.265 Q54.223 -53.909 54.223 -57.621 Q54.223 -61.333 51.579 -63.988 Q48.935 -66.643 45.223 -66.643 Q41.511 -66.643 38.856 -63.999 Q36.201 -61.356 36.201 -57.643 Q36.201 -53.931 38.845 -51.276 Q41.488 -48.621 45.201 -48.621 Z"/></g><g id="Medium-M" transform="matrix(1 0 0 1 1689.91 1126)"><path d="M4.073 6.295 V-8.782 Q4.073 -13.31 6.416 -17.105 Q8.759 -20.901 12.641 -22.898 Q20.481 -26.803 28.599 -28.771 Q36.718 -30.738 45.09 -30.738 Q53.519 -30.738 61.639 -28.786 Q69.758 -26.833 77.538 -22.928 Q81.42 -20.935 83.763 -17.148 Q86.106 -13.36 86.106 -8.783 V6.295 H4.073 Z M96.554 6.295 V-9.692 Q96.554 -15.311 93.522 -20.523 Q90.489 -25.735 84.775 -29.809 Q90.821 -28.999 96.207 -27.231 Q101.592 -25.464 106.348 -22.928 Q110.967 -20.428 113.447 -17.028 Q115.927 -13.627 115.927 -9.602 V6.295 H96.554 Z M45.09 -35.738 Q36.6 -35.738 30.591 -41.748 Q24.581 -47.757 24.581 -56.246 Q24.581 -64.735 30.591 -70.745 Q36.6 -76.754 45.09 -76.754 Q53.579 -76.754 59.588 -70.745 Q65.598 -64.735 65.598 -56.246 Q65.598 -47.757 59.588 -41.748 Q53.579 -35.738 45.09 -35.738 Z M96.554 -56.247 Q96.554 -47.787 90.531 -41.763 Q84.509 -35.738 76.051 -35.738 Q74.641 -35.738 72.546 -36.066 Q70.451 -36.393 68.957 -36.828 Q72.391 -40.888 74.219 -45.878 Q76.046 -50.868 76.046 -56.242 Q76.046 -61.616 74.219 -66.61 Q72.391 -71.605 68.957 -75.665 Q70.736 -76.32 72.486 -76.537 Q74.236 -76.754 76.032 -76.754 Q84.498 -76.754 90.526 -70.73 Q96.554 -64.706 96.554 -56.247 Z M15.448 -5.08 H74.731 V-8.632 Q74.731 -9.978 74.043 -11.079 Q73.356 -12.181 72.231 -12.792 Q65.66 -16.048 58.875 -17.705 Q52.09 -19.363 45.09 -19.363 Q38.15 -19.363 31.304 -17.705 Q24.459 -16.048 17.948 -12.792 Q16.823 -12.181 16.136 -11.079 Q15.448 -9.978 15.448 -8.632 V-5.08 Z M45.085 -46.665 Q49.035 -46.665 51.853 -49.478 Q54.671 -52.291 54.671 -56.242 Q54.671 -60.192 51.858 -63.01 Q49.045 -65.828 45.094 -65.828 Q41.144 -65.828 38.326 -63.015 Q35.508 -60.201 35.508 -56.251 Q35.508 -52.301 38.321 -49.483 Q41.135 -46.665 45.085 -46.665 Z"/></g><g id="Regular-M" transform="matrix(1 0 0 1 1394.06 1126)"><path d="M5 4.77 V-9.23 Q5 -13.48 7.188 -17.042 Q9.375 -20.605 13 -22.48 Q20.75 -26.355 28.75 -28.292 Q36.75 -30.23 45 -30.23 Q53.25 -30.23 61.25 -28.292 Q69.25 -26.355 77 -22.48 Q80.625 -20.605 82.812 -17.042 Q85 -13.48 85 -9.23 V4.77 H5 Z M95 4.77 V-10.23 Q95 -15.73 91.938 -20.792 Q88.875 -25.855 83.25 -29.48 Q89.625 -28.73 95.25 -26.917 Q100.875 -25.105 105.75 -22.48 Q110.25 -19.98 112.625 -16.917 Q115 -13.855 115 -10.23 V4.77 H95 Z M45 -35.23 Q36.75 -35.23 30.875 -41.105 Q25 -46.98 25 -55.23 Q25 -63.48 30.875 -69.355 Q36.75 -75.23 45 -75.23 Q53.25 -75.23 59.125 -69.355 Q65 -63.48 65 -55.23 Q65 -46.98 59.125 -41.105 Q53.25 -35.23 45 -35.23 Z M95 -55.23 Q95 -46.98 89.125 -41.105 Q83.25 -35.23 75 -35.23 Q73.625 -35.23 71.5 -35.542 Q69.375 -35.855 68 -36.23 Q71.375 -40.23 73.188 -45.105 Q75 -49.98 75 -55.23 Q75 -60.48 73.188 -65.355 Q71.375 -70.23 68 -74.23 Q69.75 -74.855 71.5 -75.042 Q73.25 -75.23 75 -75.23 Q83.25 -75.23 89.125 -69.355 Q95 -63.48 95 -55.23 Z M15 -5.23 H75 V-9.23 Q75 -10.605 74.312 -11.73 Q73.625 -12.855 72.5 -13.48 Q65.75 -16.855 58.875 -18.542 Q52 -20.23 45 -20.23 Q38 -20.23 31.125 -18.542 Q24.25 -16.855 17.5 -13.48 Q16.375 -12.855 15.688 -11.73 Q15 -10.605 15 -9.23 V-5.23 Z M45 -45.23 Q49.125 -45.23 52.062 -48.167 Q55 -51.105 55 -55.23 Q55 -59.355 52.062 -62.292 Q49.125 -65.23 45 -65.23 Q40.875 -65.23 37.938 -62.292 Q35 -59.355 35 -55.23 Q35 -51.105 37.938 -48.167 Q40.875 -45.23 45 -45.23 Z"/></g><g id="Light-M" transform="matrix(1 0 0 1 1098.18 1126)"><path d="M8.991 1.308 V-9.807 Q8.991 -13.672 10.986 -16.706 Q12.981 -19.739 16.315 -21.426 Q23.442 -24.913 30.649 -26.802 Q37.856 -28.691 46.49 -28.691 Q55.125 -28.691 62.332 -26.802 Q69.538 -24.913 76.666 -21.426 Q80 -19.739 81.995 -16.706 Q83.99 -13.672 83.99 -9.807 V1.308 H8.991 Z M93.99 1.308 V-10.422 Q93.99 -15.345 91.579 -19.806 Q89.169 -24.267 84.74 -27.461 Q89.769 -26.711 94.288 -25.138 Q98.808 -23.566 102.913 -21.422 Q106.788 -19.355 108.899 -16.549 Q111.009 -13.743 111.009 -10.422 V1.308 H93.99 Z M46.49 -36.769 Q39.272 -36.769 34.131 -41.909 Q28.991 -47.05 28.991 -54.268 Q28.991 -61.487 34.131 -66.628 Q39.272 -71.768 46.49 -71.768 Q53.709 -71.768 58.85 -66.628 Q63.99 -61.487 63.99 -54.268 Q63.99 -47.05 58.85 -41.909 Q53.709 -36.769 46.49 -36.769 Z M89.663 -54.268 Q89.663 -47.05 84.522 -41.909 Q79.382 -36.769 72.163 -36.769 Q71.317 -36.769 70.01 -36.961 Q68.702 -37.153 67.856 -37.384 Q70.814 -40.94 72.402 -45.273 Q73.99 -49.607 73.99 -54.274 Q73.99 -58.941 72.37 -63.239 Q70.75 -67.537 67.856 -71.153 Q68.933 -71.537 70.01 -71.653 Q71.086 -71.768 72.163 -71.768 Q79.382 -71.768 84.522 -66.628 Q89.663 -61.487 89.663 -54.268 Z M16.491 -6.192 H76.49 V-9.807 Q76.49 -11.374 75.707 -12.595 Q74.923 -13.817 73.221 -14.73 Q67.048 -17.913 60.51 -19.552 Q53.971 -21.192 46.49 -21.192 Q39.01 -21.192 32.471 -19.552 Q25.933 -17.913 19.76 -14.73 Q18.058 -13.817 17.274 -12.595 Q16.491 -11.374 16.491 -9.807 V-6.192 Z M46.49 -44.268 Q50.615 -44.268 53.553 -47.206 Q56.49 -50.143 56.49 -54.268 Q56.49 -58.393 53.553 -61.331 Q50.615 -64.268 46.49 -64.268 Q42.365 -64.268 39.428 -61.331 Q36.49 -58.393 36.49 -54.268 Q36.49 -50.143 39.428 -47.206 Q42.365 -44.268 46.49 -44.268 Z"/></g><g id="Thin-M" transform="matrix(1 0 0 1 802.565 1126)"><path d="M12.981 -2.153 V-10.384 Q12.981 -13.865 14.784 -16.369 Q16.587 -18.874 19.629 -20.373 Q26.135 -23.47 32.548 -25.312 Q38.962 -27.153 47.981 -27.153 Q57 -27.153 63.413 -25.312 Q69.827 -23.47 76.332 -20.373 Q79.375 -18.874 81.178 -16.369 Q82.981 -13.865 82.981 -10.384 V-2.153 H12.981 Z M92.981 -2.153 V-10.615 Q92.981 -14.961 91.222 -18.82 Q89.462 -22.678 86.231 -25.442 Q89.913 -24.692 93.327 -23.36 Q96.74 -22.028 100.077 -20.365 Q103.327 -18.73 105.173 -16.181 Q107.019 -13.632 107.019 -10.615 V-2.153 H92.981 Z M47.981 -38.307 Q41.793 -38.307 37.387 -42.713 Q32.981 -47.119 32.981 -53.307 Q32.981 -59.494 37.387 -63.901 Q41.793 -68.307 47.981 -68.307 Q54.168 -68.307 58.575 -63.901 Q62.981 -59.494 62.981 -53.307 Q62.981 -47.119 58.575 -42.713 Q54.168 -38.307 47.981 -38.307 Z M84.327 -53.307 Q84.327 -47.119 79.921 -42.713 Q75.514 -38.307 69.327 -38.307 Q69.01 -38.307 68.519 -38.379 Q68.029 -38.451 67.712 -38.538 Q70.252 -41.649 71.616 -45.442 Q72.981 -49.234 72.981 -53.319 Q72.981 -57.403 71.553 -61.124 Q70.125 -64.845 67.712 -68.076 Q68.115 -68.22 68.519 -68.264 Q68.923 -68.307 69.327 -68.307 Q75.514 -68.307 79.921 -63.901 Q84.327 -59.494 84.327 -53.307 Z M17.981 -7.153 H77.981 V-10.384 Q77.981 -12.143 77.101 -13.461 Q76.221 -14.778 73.942 -15.98 Q68.346 -18.97 62.144 -20.562 Q55.942 -22.153 47.981 -22.153 Q40.019 -22.153 33.817 -20.562 Q27.615 -18.97 22.019 -15.98 Q19.74 -14.778 18.86 -13.461 Q17.981 -12.143 17.981 -10.384 V-7.153 Z M47.981 -43.307 Q52.106 -43.307 55.043 -46.244 Q57.981 -49.182 57.981 -53.307 Q57.981 -57.432 55.043 -60.369 Q52.106 -63.307 47.981 -63.307 Q43.856 -63.307 40.918 -60.369 Q37.981 -57.432 37.981 -53.307 Q37.981 -49.182 40.918 -46.244 Q43.856 -43.307 47.981 -43.307 Z"/></g><g id="Ultralight-M" transform="matrix(1 0 0 1 506.415 1126)"><path d="M15.375 -4.23 V-10.73 Q15.375 -13.98 17.062 -16.167 Q18.75 -18.355 21.618 -19.741 Q27.75 -22.605 33.688 -24.417 Q39.625 -26.23 48.875 -26.23 Q58.125 -26.23 64.062 -24.417 Q70 -22.605 76.132 -19.741 Q79 -18.355 80.688 -16.167 Q82.375 -13.98 82.375 -10.73 V-4.23 H15.375 Z M92.375 -4.23 V-10.73 Q92.375 -14.73 91.007 -18.228 Q89.638 -21.725 87.125 -24.23 Q90 -23.48 92.75 -22.292 Q95.5 -21.105 98.375 -19.73 Q101.25 -18.355 102.938 -15.96 Q104.625 -13.565 104.625 -10.73 V-4.23 H92.375 Z M48.875 -39.23 Q43.306 -39.23 39.341 -43.196 Q35.375 -47.161 35.375 -52.73 Q35.375 -58.299 39.341 -62.264 Q43.306 -66.23 48.875 -66.23 Q54.444 -66.23 58.409 -62.264 Q62.375 -58.299 62.375 -52.73 Q62.375 -47.161 58.409 -43.196 Q54.444 -39.23 48.875 -39.23 Z M81.125 -52.73 Q81.125 -47.161 77.159 -43.196 Q73.194 -39.23 67.625 -39.23 Q67.625 -39.23 67.625 -39.23 Q67.625 -39.23 67.625 -39.23 Q69.915 -42.075 71.145 -45.543 Q72.375 -49.011 72.375 -52.745 Q72.375 -56.48 71.062 -59.855 Q69.75 -63.23 67.625 -66.23 Q67.625 -66.23 67.625 -66.23 Q67.625 -66.23 67.625 -66.23 Q73.194 -66.23 77.159 -62.264 Q81.125 -58.299 81.125 -52.73 Z M18.875 -7.73 H78.875 V-10.73 Q78.875 -12.605 77.938 -13.98 Q77 -15.355 74.375 -16.73 Q69.125 -19.605 63.125 -21.167 Q57.125 -22.73 48.875 -22.73 Q40.625 -22.73 34.625 -21.167 Q28.625 -19.605 23.375 -16.73 Q20.75 -15.355 19.812 -13.98 Q18.875 -12.605 18.875 -10.73 V-7.73 Z M48.875 -42.73 Q53 -42.73 55.938 -45.667 Q58.875 -48.605 58.875 -52.73 Q58.875 -56.855 55.938 -59.792 Q53 -62.73 48.875 -62.73 Q44.75 -62.73 41.812 -59.792 Q38.875 -56.855 38.875 -52.73 Q38.875 -48.605 41.812 -45.667 Q44.75 -42.73 48.875 -42.73 Z"/></g><g id="Bold-S" transform="matrix(1 0 0 1 2294.23 696)"><path d="M6.411 -1.796 V-14.42 Q6.411 -17.88 8.156 -20.78 Q9.901 -23.681 12.92 -25.367 Q18.541 -28.622 24.899 -30.397 Q31.256 -32.173 38.168 -32.173 Q45.269 -32.173 51.63 -30.447 Q57.992 -28.721 63.416 -25.466 Q66.435 -23.794 68.18 -20.921 Q69.925 -18.048 69.925 -14.426 V-1.796 H6.411 Z M78.505 -1.796 V-14.124 Q78.505 -18.661 76.681 -22.705 Q74.856 -26.748 71.306 -30.496 Q74.067 -29.51 76.878 -28.326 Q79.689 -27.143 82.549 -25.466 Q85.113 -24.184 86.691 -20.931 Q88.269 -17.678 88.269 -13.828 V-1.796 H78.505 Z M38.168 -36.907 Q31.461 -36.907 26.875 -41.493 Q22.289 -46.079 22.289 -52.785 Q22.289 -59.492 26.875 -64.078 Q31.461 -68.664 38.168 -68.664 Q44.874 -68.664 49.46 -64.078 Q54.047 -59.492 54.047 -52.785 Q54.047 -46.079 49.46 -41.493 Q44.874 -36.907 38.168 -36.907 Z M76.139 -52.786 Q76.139 -46.177 71.508 -41.542 Q66.878 -36.907 60.275 -36.907 Q59.372 -36.907 58.781 -37.005 Q58.189 -37.104 57.005 -37.498 Q59.668 -40.556 61.148 -44.437 Q62.627 -48.318 62.627 -52.771 Q62.627 -57.223 61.148 -61.119 Q59.668 -65.015 57.005 -68.072 Q57.893 -68.368 58.583 -68.516 Q59.274 -68.664 60.213 -68.664 Q66.842 -68.664 71.49 -64.029 Q76.139 -59.395 76.139 -52.786 Z M18.048 -13.434 H58.287 V-13.927 Q58.287 -14.469 57.989 -14.913 Q57.691 -15.357 57.203 -15.604 Q53.159 -17.872 48.326 -19.203 Q43.494 -20.535 38.168 -20.535 Q33.039 -20.535 28.01 -19.253 Q22.98 -17.971 19.133 -15.604 Q18.645 -15.368 18.347 -14.945 Q18.048 -14.522 18.048 -13.936 V-13.434 Z M38.173 -47.065 Q40.535 -47.065 42.212 -48.747 Q43.888 -50.429 43.888 -52.79 Q43.888 -55.152 42.206 -56.829 Q40.524 -58.505 38.163 -58.505 Q35.801 -58.505 34.124 -56.824 Q32.448 -55.142 32.448 -52.78 Q32.448 -50.418 34.129 -48.742 Q35.811 -47.065 38.173 -47.065 Z"/></g><g id="Semibold-S" transform="matrix(1 0 0 1 1998.1 696)"><path d="M7.74 -3.983 V-15.063 Q7.74 -18.124 9.262 -20.69 Q10.785 -23.256 13.434 -24.767 Q18.927 -27.979 25.115 -29.711 Q31.302 -31.444 38.039 -31.444 Q44.883 -31.444 51.073 -29.739 Q57.263 -28.035 62.644 -24.823 Q65.294 -23.32 66.816 -20.77 Q68.339 -18.219 68.339 -15.066 V-3.983 H7.74 Z M76.276 -3.983 V-14.896 Q76.276 -19.261 74.408 -23.091 Q72.541 -26.92 69.119 -30.024 Q72.352 -29.124 75.506 -27.876 Q78.66 -26.628 81.692 -24.823 Q84.084 -23.541 85.512 -20.773 Q86.94 -18.005 86.94 -14.729 V-3.983 H76.276 Z M38.039 -36.178 Q31.676 -36.178 27.283 -40.571 Q22.89 -44.964 22.89 -51.327 Q22.89 -57.691 27.283 -62.084 Q31.676 -66.477 38.039 -66.477 Q44.403 -66.477 48.796 -62.084 Q53.189 -57.691 53.189 -51.327 Q53.189 -44.964 48.796 -40.571 Q44.403 -36.178 38.039 -36.178 Z M73.909 -51.328 Q73.909 -45.02 69.491 -40.599 Q65.073 -36.178 58.768 -36.178 Q57.914 -36.178 57.28 -36.255 Q56.645 -36.332 55.633 -36.641 Q58.21 -39.612 59.668 -43.328 Q61.126 -47.044 61.126 -51.319 Q61.126 -55.594 59.668 -59.318 Q58.21 -63.042 55.633 -66.014 Q56.478 -66.267 57.168 -66.372 Q57.859 -66.477 58.733 -66.477 Q65.052 -66.477 69.481 -62.057 Q73.909 -57.636 73.909 -51.328 Z M17.405 -13.648 H58.673 V-14.785 Q58.673 -15.369 58.375 -15.846 Q58.077 -16.324 57.588 -16.59 Q53.287 -19.03 48.326 -20.404 Q43.365 -21.778 38.039 -21.778 Q32.825 -21.778 27.752 -20.453 Q22.68 -19.128 18.49 -16.59 Q18.002 -16.336 17.704 -15.878 Q17.405 -15.421 17.405 -14.794 V-13.648 Z M38.051 -45.007 Q40.663 -45.007 42.512 -46.867 Q44.36 -48.727 44.36 -51.34 Q44.36 -53.952 42.5 -55.8 Q40.639 -57.648 38.027 -57.648 Q35.415 -57.648 33.567 -55.788 Q31.719 -53.928 31.719 -51.315 Q31.719 -48.703 33.579 -46.855 Q35.439 -45.007 38.051 -45.007 Z"/></g><g id="Medium-S" transform="matrix(1 0 0 1 1701.85 696)"><path d="M8.737 -5.623 V-15.546 Q8.737 -18.308 10.092 -20.623 Q11.448 -22.938 13.82 -24.317 Q19.217 -27.497 25.277 -29.197 Q31.337 -30.897 37.943 -30.897 Q44.593 -30.897 50.655 -29.209 Q56.716 -27.52 62.065 -24.341 Q64.438 -22.965 65.793 -20.656 Q67.149 -18.348 67.149 -15.547 V-5.623 H8.737 Z M74.603 -5.623 V-15.475 Q74.603 -19.712 72.704 -23.38 Q70.804 -27.048 67.479 -29.671 Q71.066 -28.834 74.477 -27.538 Q77.888 -26.242 81.048 -24.341 Q83.312 -23.058 84.628 -20.654 Q85.943 -18.25 85.943 -15.404 V-5.623 H74.603 Z M37.943 -35.631 Q31.837 -35.631 27.588 -39.879 Q23.34 -44.128 23.34 -50.234 Q23.34 -56.34 27.588 -60.588 Q31.837 -64.837 37.943 -64.837 Q44.049 -64.837 48.297 -60.588 Q52.546 -56.34 52.546 -50.234 Q52.546 -44.128 48.297 -39.879 Q44.049 -35.631 37.943 -35.631 Z M72.236 -50.234 Q72.236 -44.151 67.977 -39.891 Q63.719 -35.631 57.637 -35.631 Q56.821 -35.631 56.154 -35.692 Q55.487 -35.753 54.604 -35.998 Q57.117 -38.905 58.559 -42.497 Q60 -46.089 60 -50.23 Q60 -54.372 58.559 -57.967 Q57.117 -61.563 54.604 -64.47 Q55.416 -64.691 56.107 -64.764 Q56.797 -64.837 57.622 -64.837 Q63.71 -64.837 67.973 -60.577 Q72.236 -56.317 72.236 -50.234 Z M16.923 -13.809 H58.963 V-15.428 Q58.963 -16.043 58.664 -16.546 Q58.366 -17.05 57.878 -17.33 Q53.384 -19.898 48.326 -21.305 Q43.268 -22.711 37.943 -22.711 Q32.664 -22.711 27.559 -21.354 Q22.454 -19.997 18.008 -17.33 Q17.519 -17.061 17.221 -16.578 Q16.923 -16.095 16.923 -15.437 V-13.809 Z M37.96 -43.463 Q40.76 -43.463 42.737 -45.457 Q44.714 -47.451 44.714 -50.251 Q44.714 -53.051 42.72 -55.028 Q40.726 -57.005 37.926 -57.005 Q35.125 -57.005 33.149 -55.011 Q31.172 -53.017 31.172 -50.217 Q31.172 -47.417 33.166 -45.44 Q35.16 -43.463 37.96 -43.463 Z"/></g><g id="Regular-S" transform="matrix(1 0 0 1 1405.73 696)"><path d="M9.468 -6.826 V-15.899 Q9.468 -18.442 10.701 -20.573 Q11.934 -22.705 14.103 -23.987 Q19.429 -27.143 25.396 -28.819 Q31.363 -30.496 37.872 -30.496 Q44.381 -30.496 50.348 -28.819 Q56.315 -27.143 61.641 -23.987 Q63.81 -22.705 65.043 -20.573 Q66.276 -18.442 66.276 -15.899 V-6.826 H9.468 Z M73.377 -6.826 V-15.899 Q73.377 -20.042 71.454 -23.592 Q69.531 -27.143 66.276 -29.411 Q70.122 -28.622 73.722 -27.291 Q77.322 -25.959 80.577 -23.987 Q82.746 -22.705 83.979 -20.567 Q85.212 -18.43 85.212 -15.899 V-6.826 H73.377 Z M37.872 -35.23 Q31.955 -35.23 27.812 -39.372 Q23.67 -43.514 23.67 -49.432 Q23.67 -55.349 27.812 -59.492 Q31.955 -63.634 37.872 -63.634 Q43.79 -63.634 47.932 -59.492 Q52.074 -55.349 52.074 -49.432 Q52.074 -43.514 47.932 -39.372 Q43.79 -35.23 37.872 -35.23 Z M71.01 -49.432 Q71.01 -43.514 66.868 -39.372 Q62.726 -35.23 56.808 -35.23 Q56.019 -35.23 55.329 -35.279 Q54.638 -35.329 53.849 -35.526 Q56.315 -38.386 57.745 -41.887 Q59.175 -45.388 59.175 -49.432 Q59.175 -53.476 57.745 -56.977 Q56.315 -60.478 53.849 -63.338 Q54.638 -63.535 55.329 -63.585 Q56.019 -63.634 56.808 -63.634 Q62.726 -63.634 66.868 -59.492 Q71.01 -55.349 71.01 -49.432 Z M16.569 -13.927 H59.175 V-15.899 Q59.175 -16.538 58.877 -17.06 Q58.578 -17.582 58.09 -17.872 Q53.455 -20.535 48.326 -21.965 Q43.198 -23.395 37.872 -23.395 Q32.546 -23.395 27.418 -22.014 Q22.289 -20.633 17.654 -17.872 Q17.166 -17.593 16.867 -17.092 Q16.569 -16.59 16.569 -15.909 V-13.927 Z M37.893 -42.331 Q40.831 -42.331 42.902 -44.423 Q44.973 -46.515 44.973 -49.453 Q44.973 -52.391 42.881 -54.462 Q40.789 -56.533 37.851 -56.533 Q34.913 -56.533 32.842 -54.441 Q30.771 -52.349 30.771 -49.411 Q30.771 -46.473 32.863 -44.402 Q34.955 -42.331 37.893 -42.331 Z"/></g><g id="Light-S" transform="matrix(1 0 0 1 1109.75 696)"><path d="M12.617 -9.557 V-16.355 Q12.617 -18.594 13.698 -20.308 Q14.779 -22.022 16.719 -23.155 Q21.554 -26.005 26.894 -27.643 Q32.235 -29.282 39.048 -29.282 Q45.861 -29.282 51.202 -27.643 Q56.543 -26.005 61.377 -23.155 Q63.317 -22.022 64.398 -20.308 Q65.479 -18.594 65.479 -16.355 V-9.557 H12.617 Z M72.58 -9.557 V-16.051 Q72.58 -19.738 71.171 -22.814 Q69.762 -25.89 67.452 -27.818 Q70.236 -27.029 72.963 -25.887 Q75.691 -24.745 78.338 -23.152 Q80.015 -22.211 81.039 -20.276 Q82.063 -18.342 82.063 -16.051 V-9.557 H72.58 Z M39.048 -36.444 Q33.944 -36.444 30.381 -40.007 Q26.819 -43.57 26.819 -48.673 Q26.819 -53.777 30.381 -57.34 Q33.944 -60.903 39.048 -60.903 Q44.152 -60.903 47.715 -57.34 Q51.277 -53.777 51.277 -48.673 Q51.277 -43.57 47.715 -40.007 Q44.152 -36.444 39.048 -36.444 Z M66.799 -48.673 Q66.799 -43.57 63.236 -40.007 Q59.674 -36.444 54.57 -36.444 Q54.198 -36.444 54.153 -36.398 Q54.107 -36.353 53.735 -36.436 Q55.872 -38.946 57.125 -42.02 Q58.378 -45.094 58.378 -48.678 Q58.378 -52.262 57.1 -55.308 Q55.822 -58.354 53.735 -60.91 Q53.993 -60.918 54.153 -60.91 Q54.312 -60.903 54.57 -60.903 Q59.674 -60.903 63.236 -57.34 Q66.799 -53.777 66.799 -48.673 Z M17.745 -14.686 H60.351 V-16.355 Q60.351 -17.145 59.977 -17.743 Q59.603 -18.341 58.659 -18.858 Q54.479 -21.369 49.616 -22.762 Q44.753 -24.154 39.048 -24.154 Q33.343 -24.154 28.48 -22.811 Q23.617 -21.468 19.437 -18.858 Q18.493 -18.352 18.119 -17.774 Q17.745 -17.197 17.745 -16.364 V-14.686 Z M39.069 -41.572 Q42.007 -41.572 44.078 -43.664 Q46.149 -45.756 46.149 -48.694 Q46.149 -51.632 44.057 -53.703 Q41.965 -55.774 39.027 -55.774 Q36.089 -55.774 34.018 -53.682 Q31.947 -51.59 31.947 -48.652 Q31.947 -45.715 34.039 -43.643 Q36.131 -41.572 39.069 -41.572 Z"/></g><g id="Thin-S" transform="matrix(1 0 0 1 814.015 696)"><path d="M15.765 -12.288 V-16.81 Q15.765 -18.746 16.694 -20.042 Q17.623 -21.339 19.334 -22.324 Q23.678 -24.867 28.393 -26.468 Q33.108 -28.068 40.224 -28.068 Q47.34 -28.068 52.055 -26.468 Q56.77 -24.867 61.114 -22.324 Q62.824 -21.339 63.753 -20.042 Q64.683 -18.746 64.683 -16.81 V-12.288 H15.765 Z M71.784 -12.288 V-16.203 Q71.784 -19.435 70.889 -22.036 Q69.994 -24.636 68.628 -26.225 Q70.35 -25.436 72.205 -24.484 Q74.06 -23.532 76.101 -22.318 Q77.284 -21.718 78.1 -19.986 Q78.915 -18.254 78.915 -16.203 V-12.288 H71.784 Z M40.224 -37.658 Q35.934 -37.658 32.95 -40.641 Q29.967 -43.624 29.967 -47.915 Q29.967 -52.205 32.95 -55.188 Q35.934 -58.172 40.224 -58.172 Q44.514 -58.172 47.497 -55.188 Q50.481 -52.205 50.481 -47.915 Q50.481 -43.624 47.497 -40.641 Q44.514 -37.658 40.224 -37.658 Z M62.589 -47.915 Q62.589 -43.624 59.606 -40.641 Q56.622 -37.658 52.332 -37.658 Q52.377 -37.658 52.977 -37.517 Q53.576 -37.377 53.622 -37.347 Q55.429 -39.506 56.505 -42.153 Q57.582 -44.8 57.582 -47.924 Q57.582 -51.048 56.455 -53.639 Q55.329 -56.23 53.622 -58.483 Q53.349 -58.301 52.977 -58.236 Q52.605 -58.172 52.332 -58.172 Q56.622 -58.172 59.606 -55.188 Q62.589 -52.205 62.589 -47.915 Z M18.921 -15.444 H61.527 V-16.81 Q61.527 -17.751 61.077 -18.425 Q60.627 -19.099 59.228 -19.844 Q55.503 -22.204 50.906 -23.558 Q46.308 -24.912 40.224 -24.912 Q34.139 -24.912 29.542 -23.607 Q24.945 -22.303 21.22 -19.844 Q19.821 -19.111 19.371 -18.457 Q18.921 -17.804 18.921 -16.819 V-15.444 Z M40.245 -40.814 Q43.183 -40.814 45.254 -42.906 Q47.325 -44.998 47.325 -47.936 Q47.325 -50.873 45.233 -52.945 Q43.141 -55.016 40.203 -55.016 Q37.265 -55.016 35.194 -52.924 Q33.123 -50.832 33.123 -47.894 Q33.123 -44.956 35.215 -42.885 Q37.307 -40.814 40.245 -40.814 Z"/></g><g id="Ultralight-S" transform="matrix(1 0 0 1 517.792 696)"><path d="M17.654 -13.927 V-17.083 Q17.654 -18.837 18.492 -19.883 Q19.331 -20.929 20.903 -21.826 Q24.952 -24.184 29.292 -25.762 Q33.631 -27.34 40.929 -27.34 Q48.228 -27.34 52.567 -25.762 Q56.907 -24.184 60.956 -21.826 Q62.528 -20.929 63.367 -19.883 Q64.205 -18.837 64.205 -17.083 V-13.927 H17.654 Z M71.306 -13.927 V-16.294 Q71.306 -19.253 70.719 -21.569 Q70.133 -23.885 69.333 -25.269 Q70.418 -24.48 71.75 -23.642 Q73.081 -22.803 74.758 -21.817 Q75.645 -21.422 76.336 -19.812 Q77.026 -18.201 77.026 -16.294 V-13.927 H71.306 Z M40.929 -38.386 Q37.127 -38.386 34.492 -41.022 Q31.856 -43.658 31.856 -47.459 Q31.856 -51.261 34.492 -53.897 Q37.127 -56.533 40.929 -56.533 Q44.731 -56.533 47.367 -53.897 Q50.003 -51.261 50.003 -47.459 Q50.003 -43.658 47.367 -41.022 Q44.731 -38.386 40.929 -38.386 Z M60.063 -47.459 Q60.063 -43.658 57.427 -41.022 Q54.791 -38.386 50.989 -38.386 Q51.285 -38.386 52.271 -38.189 Q53.258 -37.991 53.553 -37.893 Q55.163 -39.842 56.134 -42.233 Q57.104 -44.624 57.104 -47.472 Q57.104 -50.32 56.068 -52.637 Q55.033 -54.955 53.553 -57.026 Q52.962 -56.73 52.271 -56.632 Q51.581 -56.533 50.989 -56.533 Q54.791 -56.533 57.427 -53.897 Q60.063 -51.261 60.063 -47.459 Z M19.626 -15.899 H62.232 V-17.083 Q62.232 -18.116 61.737 -18.835 Q61.241 -19.554 59.57 -20.436 Q56.118 -22.705 51.68 -24.036 Q47.241 -25.367 40.929 -25.367 Q34.617 -25.367 30.179 -24.085 Q25.741 -22.803 22.289 -20.436 Q20.618 -19.566 20.122 -18.867 Q19.626 -18.168 19.626 -17.092 V-15.899 Z M40.95 -40.358 Q43.888 -40.358 45.959 -42.451 Q48.03 -44.543 48.03 -47.48 Q48.03 -50.418 45.938 -52.489 Q43.846 -54.56 40.908 -54.56 Q37.971 -54.56 35.9 -52.468 Q33.828 -50.376 33.828 -47.439 Q33.828 -44.501 35.92 -42.43 Q38.013 -40.358 40.95 -40.358 Z"/></g></g></svg>